  0
SECTION
  2
HEADER
  9
$EXTMIN
 10
-100
 20
-2357.096062
 30
0.0
  9
$EXTMAX
 10
10100
 20
-1633.297738
 30
0.0
  0
ENDSEC
  0
SECTION
  2
TABLES
  0
TABLE
  2
LTYPE
 70
     1
  0
LTYPE
  2
CONTINUOUS
 70
    64
  3
Solid line
 72
    65
 73
     0
 40
0.0
  0
ENDTAB
  0
TABLE
  2
LAYER
 70
     2
  0
LAYER
  2
0
 70
     0
 62
     7
  6
CONTINUOUS
  0
ENDTAB
  0
TABLE
  2
STYLE
 70
     1
  0
STYLE
  2
STANDARD
 70
     0
 40
0.0
 41
1.0
 50
0.0
 71
     0
 42
0.2
  3
txt
  4

  0
ENDTAB
  0
ENDSEC
  0
SECTION
  2
ENTITIES
  0
POLYLINE
  8
EXTERNAL
 10
0.0
 20
0.0
 30
0
 62
     6
 40
0
 41
0
 66
     1
  0
VERTEX
  8
EXTERNAL
 62
     6
 10
9616.169
 20
-1921.0651
 30
0
  0
VERTEX
  8
EXTERNAL
 62
     6
 10
9314.664000000001
 20
-1918.6345
 30
0
  0
VERTEX
  8
EXTERNAL
 62
     6
 10
9222.65
 20
-1916.7248
 30
0
  0
VERTEX
  8
EXTERNAL
 62
     6
 10
9051.933000000001
 20
-1913.6576
 30
0
  0
VERTEX
  8
EXTERNAL
 62
     6
 10
8967.441999999999
 20
-1911.8637
 30
0
  0
VERTEX
  8
EXTERNAL
 62
     6
 10
8884.688
 20
-1910.4748
 30
0
  0
VERTEX
  8
EXTERNAL
 62
     6
 10
8789.200999999999
 20
-1908.7965
 30
0
  0
VERTEX
  8
EXTERNAL
 62
     6
 10
8705.868
 20
-1906.8289
 30
0
  0
VERTEX
  8
EXTERNAL
 62
     6
 10
8615.012000000001
 20
-1905.6137
 30
0
  0
VERTEX
  8
EXTERNAL
 62
     6
 10
8546.146000000001
 20
-1903.6461
 30
0
  0
VERTEX
  8
EXTERNAL
 62
     6
 10
8479.016
 20
-1901.2155
 30
0
  0
VERTEX
  8
EXTERNAL
 62
     6
 10
8428.09
 20
-1898.3799
 30
0
  0
VERTEX
  8
EXTERNAL
 62
     6
 10
8384.109
 20
-1894.1553
 30
0
  0
VERTEX
  8
EXTERNAL
 62
     6
 10
8341.285
 20
-1888.947
 30
0
  0
VERTEX
  8
EXTERNAL
 62
     6
 10
8305.405000000001
 20
-1884.028
 30
0
  0
VERTEX
  8
EXTERNAL
 62
     6
 10
8271.84
 20
-1879.3405
 30
0
  0
VERTEX
  8
EXTERNAL
 62
     6
 10
8234.803
 20
-1874.4215
 30
0
  0
VERTEX
  8
EXTERNAL
 62
     6
 10
8190.822
 20
-1870.3127
 30
0
  0
VERTEX
  8
EXTERNAL
 62
     6
 10
8144.525
 20
-1866.8405
 30
0
  0
VERTEX
  8
EXTERNAL
 62
     6
 10
8084.919
 20
-1864.1206
 30
0
  0
VERTEX
  8
EXTERNAL
 62
     6
 10
8024.155
 20
-1862.2109
 30
0
  0
VERTEX
  8
EXTERNAL
 62
     6
 10
7870.799
 20
-1859.3752
 30
0
  0
VERTEX
  8
EXTERNAL
 62
     6
 10
7741.169
 20
-1857.5234
 30
0
  0
VERTEX
  8
EXTERNAL
 62
     6
 10
7614.433
 20
-1854.3405
 30
0
  0
VERTEX
  8
EXTERNAL
 62
     6
 10
7509.109
 20
-1849.1322
 30
0
  0
VERTEX
  8
EXTERNAL
 62
     6
 10
7339.549
 20
-1843.0558
 30
0
  0
VERTEX
  8
EXTERNAL
 62
     6
 10
7267.211
 20
-1840.8567
 30
0
  0
VERTEX
  8
EXTERNAL
 62
     6
 10
7123.692
 20
-1833.9701
 30
0
  0
VERTEX
  8
EXTERNAL
 62
     6
 10
7018.368
 20
-1825.3475
 30
0
  0
VERTEX
  8
EXTERNAL
 62
     6
 10
6869.641
 20
-1812.0951
 30
0
  0
VERTEX
  8
EXTERNAL
 62
     6
 10
6802.512
 20
-1807.4076
 30
0
  0
VERTEX
  8
EXTERNAL
 62
     6
 10
6672.882
 20
-1801.0419
 30
0
  0
VERTEX
  8
EXTERNAL
 62
     6
 10
6510.845
 20
-1795.9493
 30
0
  0
VERTEX
  8
EXTERNAL
 62
     6
 10
6298.461
 20
-1790.0465
 30
0
  0
VERTEX
  8
EXTERNAL
 62
     6
 10
6119.641
 20
-1785.5905
 30
0
  0
VERTEX
  8
EXTERNAL
 62
     6
 10
5939.086
 20
-1782.0026
 30
0
  0
VERTEX
  8
EXTERNAL
 62
     6
 10
5830.868
 20
-1779.9192
 30
0
  0
VERTEX
  8
EXTERNAL
 62
     6
 10
5739.433
 20
-1778.1252
 30
0
  0
VERTEX
  8
EXTERNAL
 62
     6
 10
5655.521
 20
-1776.2734
 30
0
  0
VERTEX
  8
EXTERNAL
 62
     6
 10
5550.775
 20
-1773.8428
 30
0
  0
VERTEX
  8
EXTERNAL
 62
     6
 10
5452.975
 20
-1771.6438
 30
0
  0
VERTEX
  8
EXTERNAL
 62
     6
 10
5344.757
 20
-1768.9238
 30
0
  0
VERTEX
  8
EXTERNAL
 62
     6
 10
5245.799
 20
-1766.4933
 30
0
  0
VERTEX
  8
EXTERNAL
 62
     6
 10
5161.308
 20
-1764.4678
 30
0
  0
VERTEX
  8
EXTERNAL
 62
     6
 10
5075.081
 20
-1762.2109
 30
0
  0
VERTEX
  8
EXTERNAL
 62
     6
 10
4996.956
 20
-1760.4748
 30
0
  0
VERTEX
  8
EXTERNAL
 62
     6
 10
4915.938
 20
-1758.6229
 30
0
  0
VERTEX
  8
EXTERNAL
 62
     6
 10
4830.289
 20
-1756.0766
 30
0
  0
VERTEX
  8
EXTERNAL
 62
     6
 10
4746.377
 20
-1753.8197
 30
0
  0
VERTEX
  8
EXTERNAL
 62
     6
 10
4658.993
 20
-1751.2155
 30
0
  0
VERTEX
  8
EXTERNAL
 62
     6
 10
4572.188
 20
-1748.6113
 30
0
  0
VERTEX
  8
EXTERNAL
 62
     6
 10
4495.799
 20
-1746.2965
 30
0
  0
VERTEX
  8
EXTERNAL
 62
     6
 10
4416.516
 20
-1743.7502
 30
0
  0
VERTEX
  8
EXTERNAL
 62
     6
 10
4336.655
 20
-1741.3776
 30
0
  0
VERTEX
  8
EXTERNAL
 62
     6
 10
4253.9
 20
-1738.8313
 30
0
  0
VERTEX
  8
EXTERNAL
 62
     6
 10
4178.09
 20
-1736.6901
 30
0
  0
VERTEX
  8
EXTERNAL
 62
     6
 10
4096.493
 20
-1734.5488
 30
0
  0
VERTEX
  8
EXTERNAL
 62
     6
 10
4027.049
 20
-1732.9863
 30
0
  0
VERTEX
  8
EXTERNAL
 62
     6
 10
3959.34
 20
-1731.2502
 30
0
  0
VERTEX
  8
EXTERNAL
 62
     6
 10
3884.109
 20
-1729.8613
 30
0
  0
VERTEX
  8
EXTERNAL
 62
     6
 10
3821.609
 20
-1728.8197
 30
0
  0
VERTEX
  8
EXTERNAL
 62
     6
 10
3738.854
 20
-1727.2572
 30
0
  0
VERTEX
  8
EXTERNAL
 62
     6
 10
3675.197
 20
-1726.2155
 30
0
  0
VERTEX
  8
EXTERNAL
 62
     6
 10
3608.067
 20
-1725.2896
 30
0
  0
VERTEX
  8
EXTERNAL
 62
     6
 10
3557.141
 20
-1725.2896
 30
0
  0
VERTEX
  8
EXTERNAL
 62
     6
 10
3514.317
 20
-1726.3891
 30
0
  0
VERTEX
  8
EXTERNAL
 62
     6
 10
3480.752
 20
-1728.241
 30
0
  0
VERTEX
  8
EXTERNAL
 62
     6
 10
3446.03
 20
-1730.3243
 30
0
  0
VERTEX
  8
EXTERNAL
 62
     6
 10
3404.942
 20
-1732.4655
 30
0
  0
VERTEX
  8
EXTERNAL
 62
     6
 10
3345.336
 20
-1733.9701
 30
0
  0
VERTEX
  8
EXTERNAL
 62
     6
 10
3288.044
 20
-1734.4331
 30
0
  0
VERTEX
  8
EXTERNAL
 62
     6
 10
3230.752
 20
-1733.6808
 30
0
  0
VERTEX
  8
EXTERNAL
 62
     6
 10
3171.146
 20
-1732.6391
 30
0
  0
VERTEX
  8
EXTERNAL
 62
     6
 10
3122.535
 20
-1730.5558
 30
0
  0
VERTEX
  8
EXTERNAL
 62
     6
 10
3063.507
 20
-1727.8938
 30
0
  0
VERTEX
  8
EXTERNAL
 62
     6
 10
3007.952
 20
-1724.5373
 30
0
  0
VERTEX
  8
EXTERNAL
 62
     6
 10
2954.711
 20
-1720.6021
 30
0
  0
VERTEX
  8
EXTERNAL
 62
     6
 10
2916.516
 20
-1716.9563
 30
0
  0
VERTEX
  8
EXTERNAL
 62
     6
 10
2873.113
 20
-1712.6738
 30
0
  0
VERTEX
  8
EXTERNAL
 62
     6
 10
2836.655
 20
-1708.2757
 30
0
  0
VERTEX
  8
EXTERNAL
 62
     6
 10
2803.09
 20
-1703.9354
 30
0
  0
VERTEX
  8
EXTERNAL
 62
     6
 10
2769.526
 20
-1699.8845
 30
0
  0
VERTEX
  8
EXTERNAL
 62
     6
 10
2732.488
 20
-1696.7595
 30
0
  0
VERTEX
  8
EXTERNAL
 62
     6
 10
2687.35
 20
-1694.2132
 30
0
  0
VERTEX
  8
EXTERNAL
 62
     6
 10
2636.424
 20
-1692.072
 30
0
  0
VERTEX
  8
EXTERNAL
 62
     6
 10
2562.928
 20
-1689.6414
 30
0
  0
VERTEX
  8
EXTERNAL
 62
     6
 10
2459.34
 20
-1686.9215
 30
0
  0
VERTEX
  8
EXTERNAL
 62
     6
 10
2360.382
 20
-1684.1438
 30
0
  0
VERTEX
  8
EXTERNAL
 62
     6
 10
2275.891
 20
-1681.7132
 30
0
  0
VERTEX
  8
EXTERNAL
 62
     6
 10
2186.771
 20
-1679.2248
 30
0
  0
VERTEX
  8
EXTERNAL
 62
     6
 10
2078.553
 20
-1676.447
 30
0
  0
VERTEX
  8
EXTERNAL
 62
     6
 10
1981.91
 20
-1674.1901
 30
0
  0
VERTEX
  8
EXTERNAL
 62
     6
 10
1752.743
 20
-1669.1553
 30
0
  0
VERTEX
  8
EXTERNAL
 62
     6
 10
1627.743
 20
-1666.5512
 30
0
  0
VERTEX
  8
EXTERNAL
 62
     6
 10
1508.53
 20
-1664.0049
 30
0
  0
VERTEX
  8
EXTERNAL
 62
     6
 10
1393.947
 20
-1661.5743
 30
0
  0
VERTEX
  8
EXTERNAL
 62
     6
 10
1278.785
 20
-1659.4331
 30
0
  0
VERTEX
  8
EXTERNAL
 62
     6
 10
1147.998
 20
-1657.5234
 30
0
  0
VERTEX
  8
EXTERNAL
 62
     6
 10
1039.201
 20
-1656.1345
 30
0
  0
VERTEX
  8
EXTERNAL
 62
     6
 10
906.678
 20
-1654.3405
 30
0
  0
VERTEX
  8
EXTERNAL
 62
     6
 10
765.475
 20
-1652.6623
 30
0
  0
VERTEX
  8
EXTERNAL
 62
     6
 10
634.688
 20
-1650.9262
 30
0
  0
VERTEX
  8
EXTERNAL
 62
     6
 10
480.174
 20
-1648.9586
 30
0
  0
VERTEX
  8
EXTERNAL
 62
     6
 10
344.178
 20
-1646.8174
 30
0
  0
VERTEX
  8
EXTERNAL
 62
     6
 10
218.6
 20
-1645.0234
 30
0
  0
VERTEX
  8
EXTERNAL
 62
     6
 10
111.539
 20
-1642.8822
 30
0
  0
VERTEX
  8
EXTERNAL
 62
     6
 10
0
 20
-1640.3938
 30
0
  0
VERTEX
  8
EXTERNAL
 62
     6
 10
0
 20
-1686.9794
 30
0
  0
VERTEX
  8
EXTERNAL
 62
     6
 10
0
 20
-1781.5955
 30
0
  0
VERTEX
  8
EXTERNAL
 62
     6
 10
0
 20
-2350
 30
0
  0
VERTEX
  8
EXTERNAL
 62
     6
 10
8431.981
 20
-2350
 30
0
  0
VERTEX
  8
EXTERNAL
 62
     6
 10
10000
 20
-2350
 30
0
  0
VERTEX
  8
EXTERNAL
 62
     6
 10
10000
 20
-1996.9535
 30
0
  0
VERTEX
  8
EXTERNAL
 62
     6
 10
10000
 20
-1978.9756
 30
0
  0
VERTEX
  8
EXTERNAL
 62
     6
 10
10000
 20
-1919.1553
 30
0
  0
VERTEX
  8
EXTERNAL
 62
     6
 10
9616.169
 20
-1921.0651
 30
0
  0
SEQEND
  8
EXTERNAL
  0
POLYLINE
  8
MATERIAL
 10
0.0
 20
0.0
 30
0
 62
     3
 40
0
 41
0
 66
     1
  0
VERTEX
  8
MATERIAL
 62
     3
 10
0
 20
-1686.9794
 30
0
  0
VERTEX
  8
MATERIAL
 62
     3
 10
494.063
 20
-1695.6117
 30
0
  0
VERTEX
  8
MATERIAL
 62
     3
 10
880.347
 20
-1702.4115
 30
0
  0
VERTEX
  8
MATERIAL
 62
     3
 10
1147.998
 20
-1707.4269
 30
0
  0
VERTEX
  8
MATERIAL
 62
     3
 10
1598.904
 20
-1715.143
 30
0
  0
VERTEX
  8
MATERIAL
 62
     3
 10
1815.436
 20
-1719.0492
 30
0
  0
VERTEX
  8
MATERIAL
 62
     3
 10
1949.02
 20
-1721.5087
 30
0
  0
VERTEX
  8
MATERIAL
 62
     3
 10
2058.974
 20
-1724.3058
 30
0
  0
VERTEX
  8
MATERIAL
 62
     3
 10
2173.268
 20
-1726.4759
 30
0
  0
VERTEX
  8
MATERIAL
 62
     3
 10
2283.222
 20
-1728.7425
 30
0
  0
VERTEX
  8
MATERIAL
 62
     3
 10
2400.409
 20
-1731.1538
 30
0
  0
VERTEX
  8
MATERIAL
 62
     3
 10
2534.958
 20
-1733.8062
 30
0
  0
VERTEX
  8
MATERIAL
 62
     3
 10
2606.331
 20
-1735.2529
 30
0
  0
VERTEX
  8
MATERIAL
 62
     3
 10
2662.272
 20
-1737.2784
 30
0
  0
VERTEX
  8
MATERIAL
 62
     3
 10
2730.752
 20
-1740.7506
 30
0
  0
VERTEX
  8
MATERIAL
 62
     3
 10
2785.729
 20
-1744.2711
 30
0
  0
VERTEX
  8
MATERIAL
 62
     3
 10
2844.564
 20
-1748.9972
 30
0
  0
VERTEX
  8
MATERIAL
 62
     3
 10
2898.322
 20
-1753.5357
 30
0
  0
VERTEX
  8
MATERIAL
 62
     3
 10
2953.915
 20
-1758.6261
 30
0
  0
VERTEX
  8
MATERIAL
 62
     3
 10
3014.197
 20
-1763.7501
 30
0
  0
VERTEX
  8
MATERIAL
 62
     3
 10
3069.12
 20
-1769.2089
 30
0
  0
VERTEX
  8
MATERIAL
 62
     3
 10
3109.977
 20
-1773.3282
 30
0
  0
VERTEX
  8
MATERIAL
 62
     3
 10
3156.193
 20
-1777.5479
 30
0
  0
VERTEX
  8
MATERIAL
 62
     3
 10
3199.395
 20
-1780.6624
 30
0
  0
VERTEX
  8
MATERIAL
 62
     3
 10
3237.574
 20
-1782.8728
 30
0
  0
VERTEX
  8
MATERIAL
 62
     3
 10
3269.054
 20
-1783.576
 30
0
  0
VERTEX
  8
MATERIAL
 62
     3
 10
3299.865
 20
-1783.6765
 30
0
  0
VERTEX
  8
MATERIAL
 62
     3
 10
3323.307
 20
-1782.8058
 30
0
  0
VERTEX
  8
MATERIAL
 62
     3
 10
3348.09
 20
-1781.0978
 30
0
  0
VERTEX
  8
MATERIAL
 62
     3
 10
3378.901
 20
-1778.8205
 30
0
  0
VERTEX
  8
MATERIAL
 62
     3
 10
3401.004
 20
-1777.5479
 30
0
  0
VERTEX
  8
MATERIAL
 62
     3
 10
3433.824
 20
-1776.7776
 30
0
  0
VERTEX
  8
MATERIAL
 62
     3
 10
3495.78
 20
-1776.7776
 30
0
  0
VERTEX
  8
MATERIAL
 62
     3
 10
3570.127
 20
-1776.8446
 30
0
  0
VERTEX
  8
MATERIAL
 62
     3
 10
3632.753
 20
-1776.7776
 30
0
  0
VERTEX
  8
MATERIAL
 62
     3
 10
3673.276
 20
-1777.6818
 30
0
  0
VERTEX
  8
MATERIAL
 62
     3
 10
3749.298
 20
-1779.5908
 30
0
  0
VERTEX
  8
MATERIAL
 62
     3
 10
3826.324
 20
-1781.7341
 30
0
  0
VERTEX
  8
MATERIAL
 62
     3
 10
3914.068
 20
-1784.1119
 30
0
  0
VERTEX
  8
MATERIAL
 62
     3
 10
4006.834
 20
-1786.3892
 30
0
  0
VERTEX
  8
MATERIAL
 62
     3
 10
4099.936
 20
-1788.767
 30
0
  0
VERTEX
  8
MATERIAL
 62
     3
 10
4188.349
 20
-1791.1782
 30
0
  0
VERTEX
  8
MATERIAL
 62
     3
 10
4261.022
 20
-1792.9532
 30
0
  0
VERTEX
  8
MATERIAL
 62
     3
 10
4336.709
 20
-1794.6946
 30
0
  0
VERTEX
  8
MATERIAL
 62
     3
 10
4438.183
 20
-1796.6705
 30
0
  0
VERTEX
  8
MATERIAL
 62
     3
 10
4523.247
 20
-1799.0483
 30
0
  0
VERTEX
  8
MATERIAL
 62
     3
 10
4616.349
 20
-1801.0912
 30
0
  0
VERTEX
  8
MATERIAL
 62
     3
 10
4705.431
 20
-1803.2345
 30
0
  0
VERTEX
  8
MATERIAL
 62
     3
 10
4788.821
 20
-1805.0765
 30
0
  0
VERTEX
  8
MATERIAL
 62
     3
 10
4878.909
 20
-1807.2868
 30
0
  0
VERTEX
  8
MATERIAL
 62
     3
 10
4988.822
 20
-1809.745
 30
0
  0
VERTEX
  8
MATERIAL
 62
     3
 10
5081.254
 20
-1812.0759
 30
0
  0
VERTEX
  8
MATERIAL
 62
     3
 10
5176.499
 20
-1814.0852
 30
0
  0
VERTEX
  8
MATERIAL
 62
     3
 10
5277.772
 20
-1816.6171
 30
0
  0
VERTEX
  8
MATERIAL
 62
     3
 10
5377.438
 20
-1818.9881
 30
0
  0
VERTEX
  8
MATERIAL
 62
     3
 10
5453.393
 20
-1820.4349
 30
0
  0
VERTEX
  8
MATERIAL
 62
     3
 10
5549.441
 20
-1822.7658
 30
0
  0
VERTEX
  8
MATERIAL
 62
     3
 10
5635.443
 20
-1824.8957
 30
0
  0
VERTEX
  8
MATERIAL
 62
     3
 10
5749.978
 20
-1827.307
 30
0
  0
VERTEX
  8
MATERIAL
 62
     3
 10
5882.598
 20
-1830.5622
 30
0
  0
VERTEX
  8
MATERIAL
 62
     3
 10
5995.927
 20
-1833.2548
 30
0
  0
VERTEX
  8
MATERIAL
 62
     3
 10
6114.079
 20
-1835.5857
 30
0
  0
VERTEX
  8
MATERIAL
 62
     3
 10
6214.549
 20
-1837.5951
 30
0
  0
VERTEX
  8
MATERIAL
 62
     3
 10
6319.439
 20
-1839.3633
 30
0
  0
VERTEX
  8
MATERIAL
 62
     3
 10
6408.254
 20
-1840.5288
 30
0
  0
VERTEX
  8
MATERIAL
 62
     3
 10
6508.723
 20
-1841.9354
 30
0
  0
VERTEX
  8
MATERIAL
 62
     3
 10
6616.024
 20
-1843.8242
 30
0
  0
VERTEX
  8
MATERIAL
 62
     3
 10
6704.839
 20
-1845.7532
 30
0
  0
VERTEX
  8
MATERIAL
 62
     3
 10
6780.392
 20
-1848.4056
 30
0
  0
VERTEX
  8
MATERIAL
 62
     3
 10
6859.964
 20
-1851.8617
 30
0
  0
VERTEX
  8
MATERIAL
 62
     3
 10
6923.863
 20
-1855.3983
 30
0
  0
VERTEX
  8
MATERIAL
 62
     3
 10
6979.724
 20
-1859.5778
 30
0
  0
VERTEX
  8
MATERIAL
 62
     3
 10
7017.5
 20
-1863.1143
 30
0
  0
VERTEX
  8
MATERIAL
 62
     3
 10
7064.118
 20
-1868.9415
 30
0
  0
VERTEX
  8
MATERIAL
 62
     3
 10
7103.502
 20
-1873.6033
 30
0
  0
VERTEX
  8
MATERIAL
 62
     3
 10
7140.876
 20
-1879.5511
 30
0
  0
VERTEX
  8
MATERIAL
 62
     3
 10
7175.438
 20
-1884.0923
 30
0
  0
VERTEX
  8
MATERIAL
 62
     3
 10
7222.458
 20
-1890.1607
 30
0
  0
VERTEX
  8
MATERIAL
 62
     3
 10
7276.711
 20
-1895.5458
 30
0
  0
VERTEX
  8
MATERIAL
 62
     3
 10
7312.478
 20
-1898.7608
 30
0
  0
VERTEX
  8
MATERIAL
 62
     3
 10
7355.479
 20
-1902.0562
 30
0
  0
VERTEX
  8
MATERIAL
 62
     3
 10
7419.378
 20
-1905.432
 30
0
  0
VERTEX
  8
MATERIAL
 62
     3
 10
7483.276
 20
-1908.004
 30
0
  0
VERTEX
  8
MATERIAL
 62
     3
 10
7568.072
 20
-1910.4153
 30
0
  0
VERTEX
  8
MATERIAL
 62
     3
 10
7656.084
 20
-1912.2639
 30
0
  0
VERTEX
  8
MATERIAL
 62
     3
 10
7738.468
 20
-1914.3939
 30
0
  0
VERTEX
  8
MATERIAL
 62
     3
 10
7814.021
 20
-1916.2425
 30
0
  0
VERTEX
  8
MATERIAL
 62
     3
 10
7904.444
 20
-1918.7342
 30
0
  0
VERTEX
  8
MATERIAL
 62
     3
 10
7976.782
 20
-1921.3464
 30
0
  0
VERTEX
  8
MATERIAL
 62
     3
 10
8045.503
 20
-1922.9539
 30
0
  0
VERTEX
  8
MATERIAL
 62
     3
 10
8101.766
 20
-1924.8829
 30
0
  0
VERTEX
  8
MATERIAL
 62
     3
 10
8160.44
 20
-1927.254
 30
0
  0
VERTEX
  8
MATERIAL
 62
     3
 10
8215.898999999999
 20
-1930.1877
 30
0
  0
VERTEX
  8
MATERIAL
 62
     3
 10
8264.526
 20
-1933.6036
 30
0
  0
VERTEX
  8
MATERIAL
 62
     3
 10
8299.49
 20
-1937.2205
 30
0
  0
VERTEX
  8
MATERIAL
 62
     3
 10
8469.082
 20
-1968.567
 30
0
  0
VERTEX
  8
MATERIAL
 62
     3
 10
8571.963
 20
-1975.8812
 30
0
  0
VERTEX
  8
MATERIAL
 62
     3
 10
8716.236999999999
 20
-1974.3942
 30
0
  0
VERTEX
  8
MATERIAL
 62
     3
 10
8759.638999999999
 20
-1973.4699
 30
0
  0
VERTEX
  8
MATERIAL
 62
     3
 10
8810.678
 20
-1972.7063
 30
0
  0
VERTEX
  8
MATERIAL
 62
     3
 10
8861.716
 20
-1972.7867
 30
0
  0
VERTEX
  8
MATERIAL
 62
     3
 10
8915.567999999999
 20
-1973.0278
 30
0
  0
VERTEX
  8
MATERIAL
 62
     3
 10
8966.606
 20
-1974.0727
 30
0
  0
VERTEX
  8
MATERIAL
 62
     3
 10
9018.85
 20
-1975.5597
 30
0
  0
VERTEX
  8
MATERIAL
 62
     3
 10
9083.955
 20
-1977.6896
 30
0
  0
VERTEX
  8
MATERIAL
 62
     3
 10
9157.498
 20
-1979.056
 30
0
  0
VERTEX
  8
MATERIAL
 62
     3
 10
9235.864
 20
-1979.6186
 30
0
  0
VERTEX
  8
MATERIAL
 62
     3
 10
9312.221
 20
-1980.2214
 30
0
  0
VERTEX
  8
MATERIAL
 62
     3
 10
9386.567999999999
 20
-1980.342
 30
0
  0
VERTEX
  8
MATERIAL
 62
     3
 10
9493.870000000001
 20
-1980.6233
 30
0
  0
VERTEX
  8
MATERIAL
 62
     3
 10
9588.311
 20
-1980.4626
 30
0
  0
VERTEX
  8
MATERIAL
 62
     3
 10
9684.762000000001
 20
-1980.342
 30
0
  0
VERTEX
  8
MATERIAL
 62
     3
 10
9798.091
 20
-1979.7794
 30
0
  0
VERTEX
  8
MATERIAL
 62
     3
 10
9925.486000000001
 20
-1979.3775
 30
0
  0
VERTEX
  8
MATERIAL
 62
     3
 10
10000
 20
-1978.9756
 30
0
  0
SEQEND
  8
MATERIAL
  0
POLYLINE
  8
MATERIAL
 10
0.0
 20
0.0
 30
0
 62
     3
 40
0
 41
0
 66
     1
  0
VERTEX
  8
MATERIAL
 62
     3
 10
0
 20
-1781.5955
 30
0
  0
VERTEX
  8
MATERIAL
 62
     3
 10
1184.463
 20
-1800.5033
 30
0
  0
VERTEX
  8
MATERIAL
 62
     3
 10
1763.557
 20
-1809.0618
 30
0
  0
VERTEX
  8
MATERIAL
 62
     3
 10
1814.49
 20
-1809.8525
 30
0
  0
VERTEX
  8
MATERIAL
 62
     3
 10
1947.751
 20
-1811.713
 30
0
  0
VERTEX
  8
MATERIAL
 62
     3
 10
2067.059
 20
-1813.6666
 30
0
  0
VERTEX
  8
MATERIAL
 62
     3
 10
2126.829
 20
-1814.2015
 30
0
  0
VERTEX
  8
MATERIAL
 62
     3
 10
2289.626
 20
-1816.2249
 30
0
  0
VERTEX
  8
MATERIAL
 62
     3
 10
3234.085
 20
-1828.8301
 30
0
  0
VERTEX
  8
MATERIAL
 62
     3
 10
3433.951
 20
-1824.6945
 30
0
  0
VERTEX
  8
MATERIAL
 62
     3
 10
3524.395
 20
-1824.5734
 30
0
  0
VERTEX
  8
MATERIAL
 62
     3
 10
4011.754
 20
-1836.9544
 30
0
  0
VERTEX
  8
MATERIAL
 62
     3
 10
4107.494
 20
-1839.5708
 30
0
  0
VERTEX
  8
MATERIAL
 62
     3
 10
4213.894
 20
-1842.3616
 30
0
  0
VERTEX
  8
MATERIAL
 62
     3
 10
4333.538
 20
-1845.7468
 30
0
  0
VERTEX
  8
MATERIAL
 62
     3
 10
4463.388
 20
-1848.7185
 30
0
  0
VERTEX
  8
MATERIAL
 62
     3
 10
4556.932
 20
-1851.645
 30
0
  0
VERTEX
  8
MATERIAL
 62
     3
 10
4635.618
 20
-1853.99
 30
0
  0
VERTEX
  8
MATERIAL
 62
     3
 10
4723.916
 20
-1856.2731
 30
0
  0
VERTEX
  8
MATERIAL
 62
     3
 10
4805.547
 20
-1858.3662
 30
0
  0
VERTEX
  8
MATERIAL
 62
     3
 10
4873.225
 20
-1860.0174
 30
0
  0
VERTEX
  8
MATERIAL
 62
     3
 10
4959.262
 20
-1862.5951
 30
0
  0
VERTEX
  8
MATERIAL
 62
     3
 10
5042.951
 20
-1863.7773
 30
0
  0
VERTEX
  8
MATERIAL
 62
     3
 10
5142.538
 20
-1864.6223
 30
0
  0
VERTEX
  8
MATERIAL
 62
     3
 10
5223.937
 20
-1864.599
 30
0
  0
VERTEX
  8
MATERIAL
 62
     3
 10
5297.661
 20
-1864.9246
 30
0
  0
VERTEX
  8
MATERIAL
 62
     3
 10
5344.407
 20
-1865.6688
 30
0
  0
VERTEX
  8
MATERIAL
 62
     3
 10
5386.967
 20
-1866.6921
 30
0
  0
VERTEX
  8
MATERIAL
 62
     3
 10
5431.155
 20
-1868.4131
 30
0
  0
VERTEX
  8
MATERIAL
 62
     3
 10
5472.32
 20
-1870.7388
 30
0
  0
VERTEX
  8
MATERIAL
 62
     3
 10
5517.903
 20
-1873.3203
 30
0
  0
VERTEX
  8
MATERIAL
 62
     3
 10
5552.091
 20
-1875.5762
 30
0
  0
VERTEX
  8
MATERIAL
 62
     3
 10
5601.163
 20
-1878.2043
 30
0
  0
VERTEX
  8
MATERIAL
 62
     3
 10
5643.49
 20
-1880.3671
 30
0
  0
VERTEX
  8
MATERIAL
 62
     3
 10
5690.701
 20
-1880.9951
 30
0
  0
VERTEX
  8
MATERIAL
 62
     3
 10
5762.1
 20
-1882.5533
 30
0
  0
VERTEX
  8
MATERIAL
 62
     3
 10
5813.497
 20
-1883.3207
 30
0
  0
VERTEX
  8
MATERIAL
 62
     3
 10
5860.941
 20
-1884.0882
 30
0
  0
VERTEX
  8
MATERIAL
 62
     3
 10
5920.478
 20
-1884.8092
 30
0
  0
VERTEX
  8
MATERIAL
 62
     3
 10
5986.295
 20
-1886.1581
 30
0
  0
VERTEX
  8
MATERIAL
 62
     3
 10
6041.646
 20
-1887.0884
 30
0
  0
VERTEX
  8
MATERIAL
 62
     3
 10
6113.277
 20
-1888.2279
 30
0
  0
VERTEX
  8
MATERIAL
 62
     3
 10
6193.048
 20
-1889.5342
 30
0
  0
VERTEX
  8
MATERIAL
 62
     3
 10
6282.819
 20
-1891.042
 30
0
  0
VERTEX
  8
MATERIAL
 62
     3
 10
6371.428
 20
-1892.6235
 30
0
  0
VERTEX
  8
MATERIAL
 62
     3
 10
6438.408
 20
-1893.9724
 30
0
  0
VERTEX
  8
MATERIAL
 62
     3
 10
6502.131
 20
-1895.3678
 30
0
  0
VERTEX
  8
MATERIAL
 62
     3
 10
6574.692
 20
-1896.7864
 30
0
  0
VERTEX
  8
MATERIAL
 62
     3
 10
6642.37
 20
-1898.2284
 30
0
  0
VERTEX
  8
MATERIAL
 62
     3
 10
6701.907
 20
-1899.647
 30
0
  0
VERTEX
  8
MATERIAL
 62
     3
 10
6764.003
 20
-1901.1122
 30
0
  0
VERTEX
  8
MATERIAL
 62
     3
 10
6822.377
 20
-1901.7867
 30
0
  0
VERTEX
  8
MATERIAL
 62
     3
 10
6895.869
 20
-1901.9029
 30
0
  0
VERTEX
  8
MATERIAL
 62
     3
 10
6955.639
 20
-1901.4843
 30
0
  0
VERTEX
  8
MATERIAL
 62
     3
 10
7022.153
 20
-1901.9029
 30
0
  0
VERTEX
  8
MATERIAL
 62
     3
 10
7090.993
 20
-1903.5077
 30
0
  0
VERTEX
  8
MATERIAL
 62
     3
 10
7130.297
 20
-1905.9729
 30
0
  0
VERTEX
  8
MATERIAL
 62
     3
 10
7166.578
 20
-1908.973
 30
0
  0
VERTEX
  8
MATERIAL
 62
     3
 10
7204.719
 20
-1912.3918
 30
0
  0
VERTEX
  8
MATERIAL
 62
     3
 10
7256.349
 20
-1917.9734
 30
0
  0
VERTEX
  8
MATERIAL
 62
     3
 10
7302.398
 20
-1923.2527
 30
0
  0
VERTEX
  8
MATERIAL
 62
     3
 10
7346.586
 20
-1928.2762
 30
0
  0
VERTEX
  8
MATERIAL
 62
     3
 10
7390.774
 20
-1932.9973
 30
0
  0
VERTEX
  8
MATERIAL
 62
     3
 10
7440.078
 20
-1937.2533
 30
0
  0
VERTEX
  8
MATERIAL
 62
     3
 10
7491.708
 20
-1940.8116
 30
0
  0
VERTEX
  8
MATERIAL
 62
     3
 10
7552.828
 20
-1944.0068
 30
0
  0
VERTEX
  8
MATERIAL
 62
     3
 10
7614.35
 20
-1946.9102
 30
0
  0
VERTEX
  8
MATERIAL
 62
     3
 10
7847.895
 20
-1958.912
 30
0
  0
VERTEX
  8
MATERIAL
 62
     3
 10
7958.046
 20
-1962.8868
 30
0
  0
VERTEX
  8
MATERIAL
 62
     3
 10
8036.731
 20
-1964.9638
 30
0
  0
VERTEX
  8
MATERIAL
 62
     3
 10
8132.472
 20
-1967.2636
 30
0
  0
VERTEX
  8
MATERIAL
 62
     3
 10
8225.045
 20
-1970.7844
 30
0
  0
VERTEX
  8
MATERIAL
 62
     3
 10
8431.981
 20
-1987.2321
 30
0
  0
VERTEX
  8
MATERIAL
 62
     3
 10
10000
 20
-1996.9535
 30
0
  0
SEQEND
  8
MATERIAL
  0
POLYLINE
  8
MATERIAL
 10
0.0
 20
0.0
 30
0
 62
     3
 40
0
 41
0
 66
     1
  0
VERTEX
  8
MATERIAL
 62
     3
 10
8431.981
 20
-2350
 30
0
  0
VERTEX
  8
MATERIAL
 62
     3
 10
8431.981
 20
-1987.2321
 30
0
  0
SEQEND
  8
MATERIAL
  0
ENDSEC
  0
EOF
