  0
SECTION
  2
HEADER
  9
$EXTMIN
 10
-100
 20
-2357.096062
 30
0.0
  9
$EXTMAX
 10
10100
 20
-1633.297738
 30
0.0
  0
ENDSEC
  0
SECTION
  2
TABLES
  0
TABLE
  2
LTYPE
 70
     1
  0
LTYPE
  2
CONTINUOUS
 70
    64
  3
Solid line
 72
    65
 73
     0
 40
0.0
  0
ENDTAB
  0
TABLE
  2
LAYER
 70
     2
  0
LAYER
  2
0
 70
     0
 62
     7
  6
CONTINUOUS
  0
ENDTAB
  0
TABLE
  2
STYLE
 70
     1
  0
STYLE
  2
STANDARD
 70
     0
 40
0.0
 41
1.0
 50
0.0
 71
     0
 42
0.2
  3
txt
  4

  0
ENDTAB
  0
ENDSEC
  0
SECTION
  2
ENTITIES
  0
POLYLINE
  8
EXTERNAL
 10
0.0
 20
0.0
 30
0
 62
     6
 40
0
 41
0
 66
     1
  0
VERTEX
  8
EXTERNAL
 62
     6
 10
8546.146000000001
 20
-1903.6461
 30
0
  0
VERTEX
  8
EXTERNAL
 62
     6
 10
8428.09
 20
-1898.3799
 30
0
  0
VERTEX
  8
EXTERNAL
 62
     6
 10
8234.803
 20
-1874.4215
 30
0
  0
VERTEX
  8
EXTERNAL
 62
     6
 10
8144.525
 20
-1866.8405
 30
0
  0
VERTEX
  8
EXTERNAL
 62
     6
 10
8024.155
 20
-1862.2109
 30
0
  0
VERTEX
  8
EXTERNAL
 62
     6
 10
7870.799
 20
-1859.3752
 30
0
  0
VERTEX
  8
EXTERNAL
 62
     6
 10
7267.211
 20
-1840.8567
 30
0
  0
VERTEX
  8
EXTERNAL
 62
     6
 10
6869.641
 20
-1812.0951
 30
0
  0
VERTEX
  8
EXTERNAL
 62
     6
 10
6672.882
 20
-1801.0419
 30
0
  0
VERTEX
  8
EXTERNAL
 62
     6
 10
6298.461
 20
-1790.0465
 30
0
  0
VERTEX
  8
EXTERNAL
 62
     6
 10
6119.641
 20
-1785.5905
 30
0
  0
VERTEX
  8
EXTERNAL
 62
     6
 10
5939.086
 20
-1782.0026
 30
0
  0
VERTEX
  8
EXTERNAL
 62
     6
 10
5739.433
 20
-1778.1252
 30
0
  0
VERTEX
  8
EXTERNAL
 62
     6
 10
5452.975
 20
-1771.6438
 30
0
  0
VERTEX
  8
EXTERNAL
 62
     6
 10
5075.081
 20
-1762.2109
 30
0
  0
VERTEX
  8
EXTERNAL
 62
     6
 10
4830.289
 20
-1756.0766
 30
0
  0
VERTEX
  8
EXTERNAL
 62
     6
 10
4495.799
 20
-1746.2965
 30
0
  0
VERTEX
  8
EXTERNAL
 62
     6
 10
4096.493
 20
-1734.5488
 30
0
  0
VERTEX
  8
EXTERNAL
 62
     6
 10
3959.34
 20
-1731.2502
 30
0
  0
VERTEX
  8
EXTERNAL
 62
     6
 10
3821.609
 20
-1728.8197
 30
0
  0
VERTEX
  8
EXTERNAL
 62
     6
 10
3675.197
 20
-1726.2155
 30
0
  0
VERTEX
  8
EXTERNAL
 62
     6
 10
3608.067
 20
-1725.2896
 30
0
  0
VERTEX
  8
EXTERNAL
 62
     6
 10
3557.141
 20
-1725.2896
 30
0
  0
VERTEX
  8
EXTERNAL
 62
     6
 10
3514.317
 20
-1726.3891
 30
0
  0
VERTEX
  8
EXTERNAL
 62
     6
 10
3404.942
 20
-1732.4655
 30
0
  0
VERTEX
  8
EXTERNAL
 62
     6
 10
3345.336
 20
-1733.9701
 30
0
  0
VERTEX
  8
EXTERNAL
 62
     6
 10
3288.044
 20
-1734.4331
 30
0
  0
VERTEX
  8
EXTERNAL
 62
     6
 10
3171.146
 20
-1732.6391
 30
0
  0
VERTEX
  8
EXTERNAL
 62
     6
 10
2954.711
 20
-1720.6021
 30
0
  0
VERTEX
  8
EXTERNAL
 62
     6
 10
2769.526
 20
-1699.8845
 30
0
  0
VERTEX
  8
EXTERNAL
 62
     6
 10
2636.424
 20
-1692.072
 30
0
  0
VERTEX
  8
EXTERNAL
 62
     6
 10
2275.891
 20
-1681.7132
 30
0
  0
VERTEX
  8
EXTERNAL
 62
     6
 10
1981.91
 20
-1674.1901
 30
0
  0
VERTEX
  8
EXTERNAL
 62
     6
 10
1752.743
 20
-1669.1553
 30
0
  0
VERTEX
  8
EXTERNAL
 62
     6
 10
1508.53
 20
-1664.0049
 30
0
  0
VERTEX
  8
EXTERNAL
 62
     6
 10
1393.947
 20
-1661.5743
 30
0
  0
VERTEX
  8
EXTERNAL
 62
     6
 10
1278.785
 20
-1659.4331
 30
0
  0
VERTEX
  8
EXTERNAL
 62
     6
 10
765.475
 20
-1652.6623
 30
0
  0
VERTEX
  8
EXTERNAL
 62
     6
 10
0
 20
-1640.3938
 30
0
  0
VERTEX
  8
EXTERNAL
 62
     6
 10
0
 20
-2350
 30
0
  0
VERTEX
  8
EXTERNAL
 62
     6
 10
8544
 20
-2350
 30
0
  0
VERTEX
  8
EXTERNAL
 62
     6
 10
10000
 20
-2350
 30
0
  0
VERTEX
  8
EXTERNAL
 62
     6
 10
10000
 20
-2078.6475
 30
0
  0
VERTEX
  8
EXTERNAL
 62
     6
 10
10000
 20
-1919.1553
 30
0
  0
VERTEX
  8
EXTERNAL
 62
     6
 10
9616.169
 20
-1921.0651
 30
0
  0
VERTEX
  8
EXTERNAL
 62
     6
 10
9222.65
 20
-1916.7248
 30
0
  0
VERTEX
  8
EXTERNAL
 62
     6
 10
8546.146000000001
 20
-1903.6461
 30
0
  0
SEQEND
  8
EXTERNAL
  0
POLYLINE
  8
MATERIAL
 10
0.0
 20
0.0
 30
0
 62
     3
 40
0
 41
0
 66
     1
  0
VERTEX
  8
MATERIAL
 62
     3
 10
8546.146000000001
 20
-1903.6461
 30
0
  0
VERTEX
  8
MATERIAL
 62
     3
 10
8545.305
 20
-2078.6475
 30
0
  0
VERTEX
  8
MATERIAL
 62
     3
 10
10000
 20
-2078.6475
 30
0
  0
SEQEND
  8
MATERIAL
  0
POLYLINE
  8
MATERIAL
 10
0.0
 20
0.0
 30
0
 62
     3
 40
0
 41
0
 66
     1
  0
VERTEX
  8
MATERIAL
 62
     3
 10
8544
 20
-2350
 30
0
  0
VERTEX
  8
MATERIAL
 62
     3
 10
8545.305
 20
-2078.6475
 30
0
  0
SEQEND
  8
MATERIAL
  0
ENDSEC
  0
EOF
