  0
SECTION
  2
HEADER
  9
$EXTMIN
 10
-100
 20
-2357.096062
 30
0.0
  9
$EXTMAX
 10
10100
 20
-1633.297738
 30
0.0
  0
ENDSEC
  0
SECTION
  2
TABLES
  0
TABLE
  2
LTYPE
 70
     1
  0
LTYPE
  2
CONTINUOUS
 70
    64
  3
Solid line
 72
    65
 73
     0
 40
0.0
  0
ENDTAB
  0
TABLE
  2
LAYER
 70
     2
  0
LAYER
  2
0
 70
     0
 62
     7
  6
CONTINUOUS
  0
ENDTAB
  0
TABLE
  2
STYLE
 70
     1
  0
STYLE
  2
STANDARD
 70
     0
 40
0.0
 41
1.0
 50
0.0
 71
     0
 42
0.2
  3
txt
  4

  0
ENDTAB
  0
ENDSEC
  0
SECTION
  2
ENTITIES
  0
POLYLINE
  8
EXTERNAL
 10
0.0
 20
0.0
 30
0
 62
     6
 40
0
 41
0
 66
     1
  0
VERTEX
  8
EXTERNAL
 62
     6
 10
10000
 20
-1919.1553
 30
0
  0
VERTEX
  8
EXTERNAL
 62
     6
 10
9929.248
 20
-1919.8498
 30
0
  0
VERTEX
  8
EXTERNAL
 62
     6
 10
9839.549000000001
 20
-1920.6021
 30
0
  0
VERTEX
  8
EXTERNAL
 62
     6
 10
9732.487999999999
 20
-1920.8336
 30
0
  0
VERTEX
  8
EXTERNAL
 62
     6
 10
9616.169
 20
-1921.0651
 30
0
  0
VERTEX
  8
EXTERNAL
 62
     6
 10
9505.058000000001
 20
-1920.4863
 30
0
  0
VERTEX
  8
EXTERNAL
 62
     6
 10
9395.683000000001
 20
-1919.5604
 30
0
  0
VERTEX
  8
EXTERNAL
 62
     6
 10
9314.664000000001
 20
-1918.6345
 30
0
  0
VERTEX
  8
EXTERNAL
 62
     6
 10
9222.65
 20
-1916.7248
 30
0
  0
VERTEX
  8
EXTERNAL
 62
     6
 10
9134.109
 20
-1915.1623
 30
0
  0
VERTEX
  8
EXTERNAL
 62
     6
 10
9051.933000000001
 20
-1913.6576
 30
0
  0
VERTEX
  8
EXTERNAL
 62
     6
 10
8967.441999999999
 20
-1911.8637
 30
0
  0
VERTEX
  8
EXTERNAL
 62
     6
 10
8884.688
 20
-1910.4748
 30
0
  0
VERTEX
  8
EXTERNAL
 62
     6
 10
8789.200999999999
 20
-1908.7965
 30
0
  0
VERTEX
  8
EXTERNAL
 62
     6
 10
8705.868
 20
-1906.8289
 30
0
  0
VERTEX
  8
EXTERNAL
 62
     6
 10
8615.012000000001
 20
-1905.6137
 30
0
  0
VERTEX
  8
EXTERNAL
 62
     6
 10
8546.146000000001
 20
-1903.6461
 30
0
  0
VERTEX
  8
EXTERNAL
 62
     6
 10
8479.016
 20
-1901.2155
 30
0
  0
VERTEX
  8
EXTERNAL
 62
     6
 10
8428.09
 20
-1898.3799
 30
0
  0
VERTEX
  8
EXTERNAL
 62
     6
 10
8384.109
 20
-1894.1553
 30
0
  0
VERTEX
  8
EXTERNAL
 62
     6
 10
8341.285
 20
-1888.947
 30
0
  0
VERTEX
  8
EXTERNAL
 62
     6
 10
8305.405000000001
 20
-1884.028
 30
0
  0
VERTEX
  8
EXTERNAL
 62
     6
 10
8271.84
 20
-1879.3405
 30
0
  0
VERTEX
  8
EXTERNAL
 62
     6
 10
8234.803
 20
-1874.4215
 30
0
  0
VERTEX
  8
EXTERNAL
 62
     6
 10
8190.822
 20
-1870.3127
 30
0
  0
VERTEX
  8
EXTERNAL
 62
     6
 10
8144.525
 20
-1866.8405
 30
0
  0
VERTEX
  8
EXTERNAL
 62
     6
 10
8084.919
 20
-1864.1206
 30
0
  0
VERTEX
  8
EXTERNAL
 62
     6
 10
8024.155
 20
-1862.2109
 30
0
  0
VERTEX
  8
EXTERNAL
 62
     6
 10
7952.396
 20
-1860.8799
 30
0
  0
VERTEX
  8
EXTERNAL
 62
     6
 10
7870.799
 20
-1859.3752
 30
0
  0
VERTEX
  8
EXTERNAL
 62
     6
 10
7809.456
 20
-1859.028
 30
0
  0
VERTEX
  8
EXTERNAL
 62
     6
 10
7741.169
 20
-1857.5234
 30
0
  0
VERTEX
  8
EXTERNAL
 62
     6
 10
7669.41
 20
-1856.2502
 30
0
  0
VERTEX
  8
EXTERNAL
 62
     6
 10
7614.433
 20
-1854.3405
 30
0
  0
VERTEX
  8
EXTERNAL
 62
     6
 10
7564.086
 20
-1852.0257
 30
0
  0
VERTEX
  8
EXTERNAL
 62
     6
 10
7509.109
 20
-1849.1322
 30
0
  0
VERTEX
  8
EXTERNAL
 62
     6
 10
7424.618
 20
-1845.9493
 30
0
  0
VERTEX
  8
EXTERNAL
 62
     6
 10
7339.549
 20
-1843.0558
 30
0
  0
VERTEX
  8
EXTERNAL
 62
     6
 10
7267.211
 20
-1840.8567
 30
0
  0
VERTEX
  8
EXTERNAL
 62
     6
 10
7187.928
 20
-1837.5002
 30
0
  0
VERTEX
  8
EXTERNAL
 62
     6
 10
7123.692
 20
-1833.9701
 30
0
  0
VERTEX
  8
EXTERNAL
 62
     6
 10
7067.558
 20
-1829.8613
 30
0
  0
VERTEX
  8
EXTERNAL
 62
     6
 10
7018.368
 20
-1825.3475
 30
0
  0
VERTEX
  8
EXTERNAL
 62
     6
 10
6969.178
 20
-1820.7178
 30
0
  0
VERTEX
  8
EXTERNAL
 62
     6
 10
6919.41
 20
-1816.609
 30
0
  0
VERTEX
  8
EXTERNAL
 62
     6
 10
6869.641
 20
-1812.0951
 30
0
  0
VERTEX
  8
EXTERNAL
 62
     6
 10
6802.512
 20
-1807.4076
 30
0
  0
VERTEX
  8
EXTERNAL
 62
     6
 10
6734.225
 20
-1803.7039
 30
0
  0
VERTEX
  8
EXTERNAL
 62
     6
 10
6672.882
 20
-1801.0419
 30
0
  0
VERTEX
  8
EXTERNAL
 62
     6
 10
6591.285
 20
-1798.9007
 30
0
  0
VERTEX
  8
EXTERNAL
 62
     6
 10
6510.845
 20
-1795.9493
 30
0
  0
VERTEX
  8
EXTERNAL
 62
     6
 10
6406.678
 20
-1792.9401
 30
0
  0
VERTEX
  8
EXTERNAL
 62
     6
 10
6298.461
 20
-1790.0465
 30
0
  0
VERTEX
  8
EXTERNAL
 62
     6
 10
6212.234
 20
-1787.8475
 30
0
  0
VERTEX
  8
EXTERNAL
 62
     6
 10
6119.641
 20
-1785.5905
 30
0
  0
VERTEX
  8
EXTERNAL
 62
     6
 10
6027.627
 20
-1783.8544
 30
0
  0
VERTEX
  8
EXTERNAL
 62
     6
 10
5939.086
 20
-1782.0026
 30
0
  0
VERTEX
  8
EXTERNAL
 62
     6
 10
5830.868
 20
-1779.9192
 30
0
  0
VERTEX
  8
EXTERNAL
 62
     6
 10
5739.433
 20
-1778.1252
 30
0
  0
VERTEX
  8
EXTERNAL
 62
     6
 10
5655.521
 20
-1776.2734
 30
0
  0
VERTEX
  8
EXTERNAL
 62
     6
 10
5550.775
 20
-1773.8428
 30
0
  0
VERTEX
  8
EXTERNAL
 62
     6
 10
5452.975
 20
-1771.6438
 30
0
  0
VERTEX
  8
EXTERNAL
 62
     6
 10
5344.757
 20
-1768.9238
 30
0
  0
VERTEX
  8
EXTERNAL
 62
     6
 10
5245.799
 20
-1766.4933
 30
0
  0
VERTEX
  8
EXTERNAL
 62
     6
 10
5161.308
 20
-1764.4678
 30
0
  0
VERTEX
  8
EXTERNAL
 62
     6
 10
5075.081
 20
-1762.2109
 30
0
  0
VERTEX
  8
EXTERNAL
 62
     6
 10
4996.956
 20
-1760.4748
 30
0
  0
VERTEX
  8
EXTERNAL
 62
     6
 10
4915.938
 20
-1758.6229
 30
0
  0
VERTEX
  8
EXTERNAL
 62
     6
 10
4830.289
 20
-1756.0766
 30
0
  0
VERTEX
  8
EXTERNAL
 62
     6
 10
4746.377
 20
-1753.8197
 30
0
  0
VERTEX
  8
EXTERNAL
 62
     6
 10
4658.993
 20
-1751.2155
 30
0
  0
VERTEX
  8
EXTERNAL
 62
     6
 10
4572.188
 20
-1748.6113
 30
0
  0
VERTEX
  8
EXTERNAL
 62
     6
 10
4495.799
 20
-1746.2965
 30
0
  0
VERTEX
  8
EXTERNAL
 62
     6
 10
4416.516
 20
-1743.7502
 30
0
  0
VERTEX
  8
EXTERNAL
 62
     6
 10
4336.655
 20
-1741.3776
 30
0
  0
VERTEX
  8
EXTERNAL
 62
     6
 10
4253.9
 20
-1738.8313
 30
0
  0
VERTEX
  8
EXTERNAL
 62
     6
 10
4178.09
 20
-1736.6901
 30
0
  0
VERTEX
  8
EXTERNAL
 62
     6
 10
4096.493
 20
-1734.5488
 30
0
  0
VERTEX
  8
EXTERNAL
 62
     6
 10
4027.049
 20
-1732.9863
 30
0
  0
VERTEX
  8
EXTERNAL
 62
     6
 10
3959.34
 20
-1731.2502
 30
0
  0
VERTEX
  8
EXTERNAL
 62
     6
 10
3884.109
 20
-1729.8613
 30
0
  0
VERTEX
  8
EXTERNAL
 62
     6
 10
3821.609
 20
-1728.8197
 30
0
  0
VERTEX
  8
EXTERNAL
 62
     6
 10
3738.854
 20
-1727.2572
 30
0
  0
VERTEX
  8
EXTERNAL
 62
     6
 10
3675.197
 20
-1726.2155
 30
0
  0
VERTEX
  8
EXTERNAL
 62
     6
 10
3608.067
 20
-1725.2896
 30
0
  0
VERTEX
  8
EXTERNAL
 62
     6
 10
3557.141
 20
-1725.2896
 30
0
  0
VERTEX
  8
EXTERNAL
 62
     6
 10
3514.317
 20
-1726.3891
 30
0
  0
VERTEX
  8
EXTERNAL
 62
     6
 10
3480.752
 20
-1728.241
 30
0
  0
VERTEX
  8
EXTERNAL
 62
     6
 10
3446.03
 20
-1730.3243
 30
0
  0
VERTEX
  8
EXTERNAL
 62
     6
 10
3404.942
 20
-1732.4655
 30
0
  0
VERTEX
  8
EXTERNAL
 62
     6
 10
3345.336
 20
-1733.9701
 30
0
  0
VERTEX
  8
EXTERNAL
 62
     6
 10
3288.044
 20
-1734.4331
 30
0
  0
VERTEX
  8
EXTERNAL
 62
     6
 10
3230.752
 20
-1733.6808
 30
0
  0
VERTEX
  8
EXTERNAL
 62
     6
 10
3171.146
 20
-1732.6391
 30
0
  0
VERTEX
  8
EXTERNAL
 62
     6
 10
3122.535
 20
-1730.5558
 30
0
  0
VERTEX
  8
EXTERNAL
 62
     6
 10
3063.507
 20
-1727.8938
 30
0
  0
VERTEX
  8
EXTERNAL
 62
     6
 10
3007.952
 20
-1724.5373
 30
0
  0
VERTEX
  8
EXTERNAL
 62
     6
 10
2954.711
 20
-1720.6021
 30
0
  0
VERTEX
  8
EXTERNAL
 62
     6
 10
2916.516
 20
-1716.9563
 30
0
  0
VERTEX
  8
EXTERNAL
 62
     6
 10
2873.113
 20
-1712.6738
 30
0
  0
VERTEX
  8
EXTERNAL
 62
     6
 10
2836.655
 20
-1708.2757
 30
0
  0
VERTEX
  8
EXTERNAL
 62
     6
 10
2803.09
 20
-1703.9354
 30
0
  0
VERTEX
  8
EXTERNAL
 62
     6
 10
2769.526
 20
-1699.8845
 30
0
  0
VERTEX
  8
EXTERNAL
 62
     6
 10
2732.488
 20
-1696.7595
 30
0
  0
VERTEX
  8
EXTERNAL
 62
     6
 10
2687.35
 20
-1694.2132
 30
0
  0
VERTEX
  8
EXTERNAL
 62
     6
 10
2636.424
 20
-1692.072
 30
0
  0
VERTEX
  8
EXTERNAL
 62
     6
 10
2562.928
 20
-1689.6414
 30
0
  0
VERTEX
  8
EXTERNAL
 62
     6
 10
2459.34
 20
-1686.9215
 30
0
  0
VERTEX
  8
EXTERNAL
 62
     6
 10
2360.382
 20
-1684.1438
 30
0
  0
VERTEX
  8
EXTERNAL
 62
     6
 10
2275.891
 20
-1681.7132
 30
0
  0
VERTEX
  8
EXTERNAL
 62
     6
 10
2186.771
 20
-1679.2248
 30
0
  0
VERTEX
  8
EXTERNAL
 62
     6
 10
2078.553
 20
-1676.447
 30
0
  0
VERTEX
  8
EXTERNAL
 62
     6
 10
1981.91
 20
-1674.1901
 30
0
  0
VERTEX
  8
EXTERNAL
 62
     6
 10
1871.956
 20
-1671.7595
 30
0
  0
VERTEX
  8
EXTERNAL
 62
     6
 10
1752.743
 20
-1669.1553
 30
0
  0
VERTEX
  8
EXTERNAL
 62
     6
 10
1627.743
 20
-1666.5512
 30
0
  0
VERTEX
  8
EXTERNAL
 62
     6
 10
1508.53
 20
-1664.0049
 30
0
  0
VERTEX
  8
EXTERNAL
 62
     6
 10
1393.947
 20
-1661.5743
 30
0
  0
VERTEX
  8
EXTERNAL
 62
     6
 10
1278.785
 20
-1659.4331
 30
0
  0
VERTEX
  8
EXTERNAL
 62
     6
 10
1147.998
 20
-1657.5234
 30
0
  0
VERTEX
  8
EXTERNAL
 62
     6
 10
1039.201
 20
-1656.1345
 30
0
  0
VERTEX
  8
EXTERNAL
 62
     6
 10
906.678
 20
-1654.3405
 30
0
  0
VERTEX
  8
EXTERNAL
 62
     6
 10
765.475
 20
-1652.6623
 30
0
  0
VERTEX
  8
EXTERNAL
 62
     6
 10
634.688
 20
-1650.9262
 30
0
  0
VERTEX
  8
EXTERNAL
 62
     6
 10
480.174
 20
-1648.9586
 30
0
  0
VERTEX
  8
EXTERNAL
 62
     6
 10
344.178
 20
-1646.8174
 30
0
  0
VERTEX
  8
EXTERNAL
 62
     6
 10
218.6
 20
-1645.0234
 30
0
  0
VERTEX
  8
EXTERNAL
 62
     6
 10
111.539
 20
-1642.8822
 30
0
  0
VERTEX
  8
EXTERNAL
 62
     6
 10
0
 20
-1640.3938
 30
0
  0
VERTEX
  8
EXTERNAL
 62
     6
 10
0
 20
-1651.1016
 30
0
  0
VERTEX
  8
EXTERNAL
 62
     6
 10
0
 20
-1666.758
 30
0
  0
VERTEX
  8
EXTERNAL
 62
     6
 10
0
 20
-1686.9794
 30
0
  0
VERTEX
  8
EXTERNAL
 62
     6
 10
0
 20
-1701.6399
 30
0
  0
VERTEX
  8
EXTERNAL
 62
     6
 10
0
 20
-1715.2234
 30
0
  0
VERTEX
  8
EXTERNAL
 62
     6
 10
0
 20
-1735.3507
 30
0
  0
VERTEX
  8
EXTERNAL
 62
     6
 10
0
 20
-1747.0777
 30
0
  0
VERTEX
  8
EXTERNAL
 62
     6
 10
0
 20
-1774.7977
 30
0
  0
VERTEX
  8
EXTERNAL
 62
     6
 10
0
 20
-1781.5955
 30
0
  0
VERTEX
  8
EXTERNAL
 62
     6
 10
0
 20
-1796.6438
 30
0
  0
VERTEX
  8
EXTERNAL
 62
     6
 10
0
 20
-1807.8561
 30
0
  0
VERTEX
  8
EXTERNAL
 62
     6
 10
0
 20
-1825.1449
 30
0
  0
VERTEX
  8
EXTERNAL
 62
     6
 10
0
 20
-1843.9046
 30
0
  0
VERTEX
  8
EXTERNAL
 62
     6
 10
0
 20
-1856.3494
 30
0
  0
VERTEX
  8
EXTERNAL
 62
     6
 10
0
 20
-1881.0419
 30
0
  0
VERTEX
  8
EXTERNAL
 62
     6
 10
0
 20
-1894.0589
 30
0
  0
VERTEX
  8
EXTERNAL
 62
     6
 10
0
 20
-2350
 30
0
  0
VERTEX
  8
EXTERNAL
 62
     6
 10
10000
 20
-2350
 30
0
  0
VERTEX
  8
EXTERNAL
 62
     6
 10
10000
 20
-2265.2491
 30
0
  0
VERTEX
  8
EXTERNAL
 62
     6
 10
10000
 20
-2227.778
 30
0
  0
VERTEX
  8
EXTERNAL
 62
     6
 10
10000
 20
-2206.9485
 30
0
  0
VERTEX
  8
EXTERNAL
 62
     6
 10
10000
 20
-2188.1998
 30
0
  0
VERTEX
  8
EXTERNAL
 62
     6
 10
10000
 20
-2174.1669
 30
0
  0
VERTEX
  8
EXTERNAL
 62
     6
 10
10000
 20
-2114.3752
 30
0
  0
VERTEX
  8
EXTERNAL
 62
     6
 10
10000
 20
-2021.2772
 30
0
  0
VERTEX
  8
EXTERNAL
 62
     6
 10
10000
 20
-1996.9535
 30
0
  0
VERTEX
  8
EXTERNAL
 62
     6
 10
10000
 20
-1978.9756
 30
0
  0
VERTEX
  8
EXTERNAL
 62
     6
 10
10000
 20
-1954.8228
 30
0
  0
VERTEX
  8
EXTERNAL
 62
     6
 10
10000
 20
-1939.5836
 30
0
  0
VERTEX
  8
EXTERNAL
 62
     6
 10
10000
 20
-1919.1553
 30
0
  0
SEQEND
  8
EXTERNAL
  0
POLYLINE
  8
MATERIAL
 10
0.0
 20
0.0
 30
0
 62
     3
 40
0
 41
0
 66
     1
  0
VERTEX
  8
MATERIAL
 62
     3
 10
0
 20
-1686.9794
 30
0
  0
VERTEX
  8
MATERIAL
 62
     3
 10
105.367
 20
-1688.5708
 30
0
  0
VERTEX
  8
MATERIAL
 62
     3
 10
192.172
 20
-1690.3552
 30
0
  0
VERTEX
  8
MATERIAL
 62
     3
 10
297.786
 20
-1691.7537
 30
0
  0
VERTEX
  8
MATERIAL
 62
     3
 10
381.698
 20
-1693.6827
 30
0
  0
VERTEX
  8
MATERIAL
 62
     3
 10
494.063
 20
-1695.6117
 30
0
  0
VERTEX
  8
MATERIAL
 62
     3
 10
655.135
 20
-1698.4088
 30
0
  0
VERTEX
  8
MATERIAL
 62
     3
 10
761.231
 20
-1700.1931
 30
0
  0
VERTEX
  8
MATERIAL
 62
     3
 10
880.347
 20
-1702.4115
 30
0
  0
VERTEX
  8
MATERIAL
 62
     3
 10
1015.378
 20
-1704.9674
 30
0
  0
VERTEX
  8
MATERIAL
 62
     3
 10
1147.998
 20
-1707.4269
 30
0
  0
VERTEX
  8
MATERIAL
 62
     3
 10
1283.993
 20
-1709.4524
 30
0
  0
VERTEX
  8
MATERIAL
 62
     3
 10
1376.103
 20
-1711.2367
 30
0
  0
VERTEX
  8
MATERIAL
 62
     3
 10
1484.128
 20
-1713.4069
 30
0
  0
VERTEX
  8
MATERIAL
 62
     3
 10
1598.904
 20
-1715.143
 30
0
  0
VERTEX
  8
MATERIAL
 62
     3
 10
1704.518
 20
-1717.4578
 30
0
  0
VERTEX
  8
MATERIAL
 62
     3
 10
1815.436
 20
-1719.0492
 30
0
  0
VERTEX
  8
MATERIAL
 62
     3
 10
1949.02
 20
-1721.5087
 30
0
  0
VERTEX
  8
MATERIAL
 62
     3
 10
2058.974
 20
-1724.3058
 30
0
  0
VERTEX
  8
MATERIAL
 62
     3
 10
2173.268
 20
-1726.4759
 30
0
  0
VERTEX
  8
MATERIAL
 62
     3
 10
2283.222
 20
-1728.7425
 30
0
  0
VERTEX
  8
MATERIAL
 62
     3
 10
2400.409
 20
-1731.1538
 30
0
  0
VERTEX
  8
MATERIAL
 62
     3
 10
2534.958
 20
-1733.8062
 30
0
  0
VERTEX
  8
MATERIAL
 62
     3
 10
2606.331
 20
-1735.2529
 30
0
  0
VERTEX
  8
MATERIAL
 62
     3
 10
2662.272
 20
-1737.2784
 30
0
  0
VERTEX
  8
MATERIAL
 62
     3
 10
2730.752
 20
-1740.7506
 30
0
  0
VERTEX
  8
MATERIAL
 62
     3
 10
2785.729
 20
-1744.2711
 30
0
  0
VERTEX
  8
MATERIAL
 62
     3
 10
2844.564
 20
-1748.9972
 30
0
  0
VERTEX
  8
MATERIAL
 62
     3
 10
2898.322
 20
-1753.5357
 30
0
  0
VERTEX
  8
MATERIAL
 62
     3
 10
2953.915
 20
-1758.6261
 30
0
  0
VERTEX
  8
MATERIAL
 62
     3
 10
3014.197
 20
-1763.7501
 30
0
  0
VERTEX
  8
MATERIAL
 62
     3
 10
3069.12
 20
-1769.2089
 30
0
  0
VERTEX
  8
MATERIAL
 62
     3
 10
3109.977
 20
-1773.3282
 30
0
  0
VERTEX
  8
MATERIAL
 62
     3
 10
3156.193
 20
-1777.5479
 30
0
  0
VERTEX
  8
MATERIAL
 62
     3
 10
3199.395
 20
-1780.6624
 30
0
  0
VERTEX
  8
MATERIAL
 62
     3
 10
3237.574
 20
-1782.8728
 30
0
  0
VERTEX
  8
MATERIAL
 62
     3
 10
3269.054
 20
-1783.576
 30
0
  0
VERTEX
  8
MATERIAL
 62
     3
 10
3299.865
 20
-1783.6765
 30
0
  0
VERTEX
  8
MATERIAL
 62
     3
 10
3323.307
 20
-1782.8058
 30
0
  0
VERTEX
  8
MATERIAL
 62
     3
 10
3348.09
 20
-1781.0978
 30
0
  0
VERTEX
  8
MATERIAL
 62
     3
 10
3378.901
 20
-1778.8205
 30
0
  0
VERTEX
  8
MATERIAL
 62
     3
 10
3401.004
 20
-1777.5479
 30
0
  0
VERTEX
  8
MATERIAL
 62
     3
 10
3433.824
 20
-1776.7776
 30
0
  0
VERTEX
  8
MATERIAL
 62
     3
 10
3495.78
 20
-1776.7776
 30
0
  0
VERTEX
  8
MATERIAL
 62
     3
 10
3570.127
 20
-1776.8446
 30
0
  0
VERTEX
  8
MATERIAL
 62
     3
 10
3632.753
 20
-1776.7776
 30
0
  0
VERTEX
  8
MATERIAL
 62
     3
 10
3673.276
 20
-1777.6818
 30
0
  0
VERTEX
  8
MATERIAL
 62
     3
 10
3749.298
 20
-1779.5908
 30
0
  0
VERTEX
  8
MATERIAL
 62
     3
 10
3826.324
 20
-1781.7341
 30
0
  0
VERTEX
  8
MATERIAL
 62
     3
 10
3914.068
 20
-1784.1119
 30
0
  0
VERTEX
  8
MATERIAL
 62
     3
 10
4006.834
 20
-1786.3892
 30
0
  0
VERTEX
  8
MATERIAL
 62
     3
 10
4099.936
 20
-1788.767
 30
0
  0
VERTEX
  8
MATERIAL
 62
     3
 10
4188.349
 20
-1791.1782
 30
0
  0
VERTEX
  8
MATERIAL
 62
     3
 10
4261.022
 20
-1792.9532
 30
0
  0
VERTEX
  8
MATERIAL
 62
     3
 10
4336.709
 20
-1794.6946
 30
0
  0
VERTEX
  8
MATERIAL
 62
     3
 10
4438.183
 20
-1796.6705
 30
0
  0
VERTEX
  8
MATERIAL
 62
     3
 10
4523.247
 20
-1799.0483
 30
0
  0
VERTEX
  8
MATERIAL
 62
     3
 10
4616.349
 20
-1801.0912
 30
0
  0
VERTEX
  8
MATERIAL
 62
     3
 10
4705.431
 20
-1803.2345
 30
0
  0
VERTEX
  8
MATERIAL
 62
     3
 10
4788.821
 20
-1805.0765
 30
0
  0
VERTEX
  8
MATERIAL
 62
     3
 10
4878.909
 20
-1807.2868
 30
0
  0
VERTEX
  8
MATERIAL
 62
     3
 10
4988.822
 20
-1809.745
 30
0
  0
VERTEX
  8
MATERIAL
 62
     3
 10
5081.254
 20
-1812.0759
 30
0
  0
VERTEX
  8
MATERIAL
 62
     3
 10
5176.499
 20
-1814.0852
 30
0
  0
VERTEX
  8
MATERIAL
 62
     3
 10
5277.772
 20
-1816.6171
 30
0
  0
VERTEX
  8
MATERIAL
 62
     3
 10
5377.438
 20
-1818.9881
 30
0
  0
VERTEX
  8
MATERIAL
 62
     3
 10
5453.393
 20
-1820.4349
 30
0
  0
VERTEX
  8
MATERIAL
 62
     3
 10
5549.441
 20
-1822.7658
 30
0
  0
VERTEX
  8
MATERIAL
 62
     3
 10
5635.443
 20
-1824.8957
 30
0
  0
VERTEX
  8
MATERIAL
 62
     3
 10
5749.978
 20
-1827.307
 30
0
  0
VERTEX
  8
MATERIAL
 62
     3
 10
5882.598
 20
-1830.5622
 30
0
  0
VERTEX
  8
MATERIAL
 62
     3
 10
5995.927
 20
-1833.2548
 30
0
  0
VERTEX
  8
MATERIAL
 62
     3
 10
6114.079
 20
-1835.5857
 30
0
  0
VERTEX
  8
MATERIAL
 62
     3
 10
6214.549
 20
-1837.5951
 30
0
  0
VERTEX
  8
MATERIAL
 62
     3
 10
6319.439
 20
-1839.3633
 30
0
  0
VERTEX
  8
MATERIAL
 62
     3
 10
6408.254
 20
-1840.5288
 30
0
  0
VERTEX
  8
MATERIAL
 62
     3
 10
6508.723
 20
-1841.9354
 30
0
  0
VERTEX
  8
MATERIAL
 62
     3
 10
6616.024
 20
-1843.8242
 30
0
  0
VERTEX
  8
MATERIAL
 62
     3
 10
6704.839
 20
-1845.7532
 30
0
  0
VERTEX
  8
MATERIAL
 62
     3
 10
6780.392
 20
-1848.4056
 30
0
  0
VERTEX
  8
MATERIAL
 62
     3
 10
6859.964
 20
-1851.8617
 30
0
  0
VERTEX
  8
MATERIAL
 62
     3
 10
6923.863
 20
-1855.3983
 30
0
  0
VERTEX
  8
MATERIAL
 62
     3
 10
6979.724
 20
-1859.5778
 30
0
  0
VERTEX
  8
MATERIAL
 62
     3
 10
7017.5
 20
-1863.1143
 30
0
  0
VERTEX
  8
MATERIAL
 62
     3
 10
7064.118
 20
-1868.9415
 30
0
  0
VERTEX
  8
MATERIAL
 62
     3
 10
7103.502
 20
-1873.6033
 30
0
  0
VERTEX
  8
MATERIAL
 62
     3
 10
7140.876
 20
-1879.5511
 30
0
  0
VERTEX
  8
MATERIAL
 62
     3
 10
7175.438
 20
-1884.0923
 30
0
  0
VERTEX
  8
MATERIAL
 62
     3
 10
7222.458
 20
-1890.1607
 30
0
  0
VERTEX
  8
MATERIAL
 62
     3
 10
7276.711
 20
-1895.5458
 30
0
  0
VERTEX
  8
MATERIAL
 62
     3
 10
7312.478
 20
-1898.7608
 30
0
  0
VERTEX
  8
MATERIAL
 62
     3
 10
7355.479
 20
-1902.0562
 30
0
  0
VERTEX
  8
MATERIAL
 62
     3
 10
7419.378
 20
-1905.432
 30
0
  0
VERTEX
  8
MATERIAL
 62
     3
 10
7483.276
 20
-1908.004
 30
0
  0
VERTEX
  8
MATERIAL
 62
     3
 10
7568.072
 20
-1910.4153
 30
0
  0
VERTEX
  8
MATERIAL
 62
     3
 10
7656.084
 20
-1912.2639
 30
0
  0
VERTEX
  8
MATERIAL
 62
     3
 10
7738.468
 20
-1914.3939
 30
0
  0
VERTEX
  8
MATERIAL
 62
     3
 10
7814.021
 20
-1916.2425
 30
0
  0
VERTEX
  8
MATERIAL
 62
     3
 10
7904.444
 20
-1918.7342
 30
0
  0
VERTEX
  8
MATERIAL
 62
     3
 10
7976.782
 20
-1921.3464
 30
0
  0
VERTEX
  8
MATERIAL
 62
     3
 10
8045.503
 20
-1922.9539
 30
0
  0
VERTEX
  8
MATERIAL
 62
     3
 10
8101.766
 20
-1924.8829
 30
0
  0
VERTEX
  8
MATERIAL
 62
     3
 10
8160.44
 20
-1927.254
 30
0
  0
VERTEX
  8
MATERIAL
 62
     3
 10
8215.898999999999
 20
-1930.1877
 30
0
  0
VERTEX
  8
MATERIAL
 62
     3
 10
8264.526
 20
-1933.6036
 30
0
  0
VERTEX
  8
MATERIAL
 62
     3
 10
8299.49
 20
-1937.2205
 30
0
  0
VERTEX
  8
MATERIAL
 62
     3
 10
8320.789000000001
 20
-1940.7972
 30
0
  0
VERTEX
  8
MATERIAL
 62
     3
 10
8341.285
 20
-1945.7805
 30
0
  0
VERTEX
  8
MATERIAL
 62
     3
 10
8370.621999999999
 20
-1951.8489
 30
0
  0
VERTEX
  8
MATERIAL
 62
     3
 10
8387.781999999999
 20
-1955.435
 30
0
  0
VERTEX
  8
MATERIAL
 62
     3
 10
8401.968000000001
 20
-1958.3995
 30
0
  0
VERTEX
  8
MATERIAL
 62
     3
 10
8437.334000000001
 20
-1964.4678
 30
0
  0
VERTEX
  8
MATERIAL
 62
     3
 10
8469.082
 20
-1968.567
 30
0
  0
VERTEX
  8
MATERIAL
 62
     3
 10
8513.288
 20
-1972.7867
 30
0
  0
VERTEX
  8
MATERIAL
 62
     3
 10
8571.963
 20
-1975.8812
 30
0
  0
VERTEX
  8
MATERIAL
 62
     3
 10
8620.59
 20
-1976.1223
 30
0
  0
VERTEX
  8
MATERIAL
 62
     3
 10
8669.217000000001
 20
-1975.3587
 30
0
  0
VERTEX
  8
MATERIAL
 62
     3
 10
8716.236999999999
 20
-1974.3942
 30
0
  0
VERTEX
  8
MATERIAL
 62
     3
 10
8759.638999999999
 20
-1973.4699
 30
0
  0
VERTEX
  8
MATERIAL
 62
     3
 10
8810.678
 20
-1972.7063
 30
0
  0
VERTEX
  8
MATERIAL
 62
     3
 10
8861.716
 20
-1972.7867
 30
0
  0
VERTEX
  8
MATERIAL
 62
     3
 10
8915.567999999999
 20
-1973.0278
 30
0
  0
VERTEX
  8
MATERIAL
 62
     3
 10
8966.606
 20
-1974.0727
 30
0
  0
VERTEX
  8
MATERIAL
 62
     3
 10
9018.85
 20
-1975.5597
 30
0
  0
VERTEX
  8
MATERIAL
 62
     3
 10
9083.955
 20
-1977.6896
 30
0
  0
VERTEX
  8
MATERIAL
 62
     3
 10
9157.498
 20
-1979.056
 30
0
  0
VERTEX
  8
MATERIAL
 62
     3
 10
9235.864
 20
-1979.6186
 30
0
  0
VERTEX
  8
MATERIAL
 62
     3
 10
9312.221
 20
-1980.2214
 30
0
  0
VERTEX
  8
MATERIAL
 62
     3
 10
9386.567999999999
 20
-1980.342
 30
0
  0
VERTEX
  8
MATERIAL
 62
     3
 10
9493.870000000001
 20
-1980.6233
 30
0
  0
VERTEX
  8
MATERIAL
 62
     3
 10
9588.311
 20
-1980.4626
 30
0
  0
VERTEX
  8
MATERIAL
 62
     3
 10
9684.762000000001
 20
-1980.342
 30
0
  0
VERTEX
  8
MATERIAL
 62
     3
 10
9798.091
 20
-1979.7794
 30
0
  0
VERTEX
  8
MATERIAL
 62
     3
 10
9925.486000000001
 20
-1979.3775
 30
0
  0
VERTEX
  8
MATERIAL
 62
     3
 10
10000
 20
-1978.9756
 30
0
  0
SEQEND
  8
MATERIAL
  0
POLYLINE
  8
MATERIAL
 10
0.0
 20
0.0
 30
0
 62
     3
 40
0
 41
0
 66
     1
  0
VERTEX
  8
MATERIAL
 62
     3
 10
9503.422
 20
-1999.9071
 30
0
  0
VERTEX
  8
MATERIAL
 62
     3
 10
9582.727000000001
 20
-2000.1397
 30
0
  0
VERTEX
  8
MATERIAL
 62
     3
 10
9632.263999999999
 20
-1999.4652
 30
0
  0
VERTEX
  8
MATERIAL
 62
     3
 10
9697.616
 20
-1998.7443
 30
0
  0
VERTEX
  8
MATERIAL
 62
     3
 10
9770.177
 20
-1997.9303
 30
0
  0
VERTEX
  8
MATERIAL
 62
     3
 10
9816.226000000001
 20
-1997.3954
 30
0
  0
VERTEX
  8
MATERIAL
 62
     3
 10
9865.995000000001
 20
-1997.2093
 30
0
  0
VERTEX
  8
MATERIAL
 62
     3
 10
9922.742
 20
-1997.3256
 30
0
  0
VERTEX
  8
MATERIAL
 62
     3
 10
10000
 20
-1996.9535
 30
0
  0
SEQEND
  8
MATERIAL
  0
POLYLINE
  8
MATERIAL
 10
0.0
 20
0.0
 30
0
 62
     3
 40
0
 41
0
 66
     1
  0
VERTEX
  8
MATERIAL
 62
     3
 10
0
 20
-1781.5955
 30
0
  0
VERTEX
  8
MATERIAL
 62
     3
 10
51.857
 20
-1782.0141
 30
0
  0
VERTEX
  8
MATERIAL
 62
     3
 10
116.976
 20
-1783.0142
 30
0
  0
VERTEX
  8
MATERIAL
 62
     3
 10
177.211
 20
-1784.1072
 30
0
  0
VERTEX
  8
MATERIAL
 62
     3
 10
235.585
 20
-1785.0142
 30
0
  0
VERTEX
  8
MATERIAL
 62
     3
 10
296.286
 20
-1786.0841
 30
0
  0
VERTEX
  8
MATERIAL
 62
     3
 10
354.66
 20
-1786.9678
 30
0
  0
VERTEX
  8
MATERIAL
 62
     3
 10
425.128
 20
-1788.0609
 30
0
  0
VERTEX
  8
MATERIAL
 62
     3
 10
481.875
 20
-1789.1074
 30
0
  0
VERTEX
  8
MATERIAL
 62
     3
 10
543.04
 20
-1790.1075
 30
0
  0
VERTEX
  8
MATERIAL
 62
     3
 10
619.323
 20
-1791.3866
 30
0
  0
VERTEX
  8
MATERIAL
 62
     3
 10
680.255
 20
-1792.4099
 30
0
  0
VERTEX
  8
MATERIAL
 62
     3
 10
759.794
 20
-1793.3634
 30
0
  0
VERTEX
  8
MATERIAL
 62
     3
 10
840.2619999999999
 20
-1794.6891
 30
0
  0
VERTEX
  8
MATERIAL
 62
     3
 10
914.2190000000001
 20
-1796.0147
 30
0
  0
VERTEX
  8
MATERIAL
 62
     3
 10
978.175
 20
-1797.0845
 30
0
  0
VERTEX
  8
MATERIAL
 62
     3
 10
1042.131
 20
-1797.9915
 30
0
  0
VERTEX
  8
MATERIAL
 62
     3
 10
1109.111
 20
-1799.0846
 30
0
  0
VERTEX
  8
MATERIAL
 62
     3
 10
1184.463
 20
-1800.5033
 30
0
  0
VERTEX
  8
MATERIAL
 62
     3
 10
1265.629
 20
-1801.5963
 30
0
  0
VERTEX
  8
MATERIAL
 62
     3
 10
1331.911
 20
-1802.4568
 30
0
  0
VERTEX
  8
MATERIAL
 62
     3
 10
1391.681
 20
-1803.2476
 30
0
  0
VERTEX
  8
MATERIAL
 62
     3
 10
1436.799
 20
-1804.2244
 30
0
  0
VERTEX
  8
MATERIAL
 62
     3
 10
1498.895
 20
-1805.1314
 30
0
  0
VERTEX
  8
MATERIAL
 62
     3
 10
1547.967
 20
-1805.8058
 30
0
  0
VERTEX
  8
MATERIAL
 62
     3
 10
1600.992
 20
-1806.5733
 30
0
  0
VERTEX
  8
MATERIAL
 62
     3
 10
1650.762
 20
-1807.1547
 30
0
  0
VERTEX
  8
MATERIAL
 62
     3
 10
1696.578
 20
-1808.085
 30
0
  0
VERTEX
  8
MATERIAL
 62
     3
 10
1763.557
 20
-1809.0618
 30
0
  0
VERTEX
  8
MATERIAL
 62
     3
 10
1814.49
 20
-1809.8525
 30
0
  0
VERTEX
  8
MATERIAL
 62
     3
 10
1880.307
 20
-1811.0851
 30
0
  0
VERTEX
  8
MATERIAL
 62
     3
 10
1947.751
 20
-1811.713
 30
0
  0
VERTEX
  8
MATERIAL
 62
     3
 10
1997.056
 20
-1812.9224
 30
0
  0
VERTEX
  8
MATERIAL
 62
     3
 10
2067.059
 20
-1813.6666
 30
0
  0
VERTEX
  8
MATERIAL
 62
     3
 10
2126.829
 20
-1814.2015
 30
0
  0
VERTEX
  8
MATERIAL
 62
     3
 10
2172.877
 20
-1814.6899
 30
0
  0
VERTEX
  8
MATERIAL
 62
     3
 10
2241.252
 20
-1815.6202
 30
0
  0
VERTEX
  8
MATERIAL
 62
     3
 10
2289.626
 20
-1816.2249
 30
0
  0
VERTEX
  8
MATERIAL
 62
     3
 10
2337.07
 20
-1816.597
 30
0
  0
VERTEX
  8
MATERIAL
 62
     3
 10
2397.305
 20
-1817.8761
 30
0
  0
VERTEX
  8
MATERIAL
 62
     3
 10
2469.169
 20
-1818.5971
 30
0
  0
VERTEX
  8
MATERIAL
 62
     3
 10
2555.219
 20
-1819.5506
 30
0
  0
VERTEX
  8
MATERIAL
 62
     3
 10
2632.664
 20
-1820.7599
 30
0
  0
VERTEX
  8
MATERIAL
 62
     3
 10
2701.504
 20
-1821.853
 30
0
  0
VERTEX
  8
MATERIAL
 62
     3
 10
2768.949
 20
-1822.5275
 30
0
  0
VERTEX
  8
MATERIAL
 62
     3
 10
2845.696
 20
-1823.5973
 30
0
  0
VERTEX
  8
MATERIAL
 62
     3
 10
2907.56
 20
-1824.6206
 30
0
  0
VERTEX
  8
MATERIAL
 62
     3
 10
2966.167
 20
-1825.1787
 30
0
  0
VERTEX
  8
MATERIAL
 62
     3
 10
3038.263
 20
-1826.2718
 30
0
  0
VERTEX
  8
MATERIAL
 62
     3
 10
3091.753
 20
-1826.923
 30
0
  0
VERTEX
  8
MATERIAL
 62
     3
 10
3145.477
 20
-1827.7137
 30
0
  0
VERTEX
  8
MATERIAL
 62
     3
 10
3193.386
 20
-1828.3417
 30
0
  0
VERTEX
  8
MATERIAL
 62
     3
 10
3234.085
 20
-1828.8301
 30
0
  0
VERTEX
  8
MATERIAL
 62
     3
 10
3292.444
 20
-1826.4811
 30
0
  0
VERTEX
  8
MATERIAL
 62
     3
 10
3363.031
 20
-1825.6045
 30
0
  0
VERTEX
  8
MATERIAL
 62
     3
 10
3433.951
 20
-1824.6945
 30
0
  0
VERTEX
  8
MATERIAL
 62
     3
 10
3524.395
 20
-1824.5734
 30
0
  0
VERTEX
  8
MATERIAL
 62
     3
 10
3591.096
 20
-1826.0431
 30
0
  0
VERTEX
  8
MATERIAL
 62
     3
 10
3682.244
 20
-1828.2486
 30
0
  0
VERTEX
  8
MATERIAL
 62
     3
 10
3760.387
 20
-1830.0394
 30
0
  0
VERTEX
  8
MATERIAL
 62
     3
 10
3836.746
 20
-1832.2062
 30
0
  0
VERTEX
  8
MATERIAL
 62
     3
 10
3913.106
 20
-1834.1055
 30
0
  0
VERTEX
  8
MATERIAL
 62
     3
 10
4011.754
 20
-1836.9544
 30
0
  0
VERTEX
  8
MATERIAL
 62
     3
 10
4107.494
 20
-1839.5708
 30
0
  0
VERTEX
  8
MATERIAL
 62
     3
 10
4213.894
 20
-1842.3616
 30
0
  0
VERTEX
  8
MATERIAL
 62
     3
 10
4333.538
 20
-1845.7468
 30
0
  0
VERTEX
  8
MATERIAL
 62
     3
 10
4463.388
 20
-1848.7185
 30
0
  0
VERTEX
  8
MATERIAL
 62
     3
 10
4556.932
 20
-1851.645
 30
0
  0
VERTEX
  8
MATERIAL
 62
     3
 10
4635.618
 20
-1853.99
 30
0
  0
VERTEX
  8
MATERIAL
 62
     3
 10
4723.916
 20
-1856.2731
 30
0
  0
VERTEX
  8
MATERIAL
 62
     3
 10
4805.547
 20
-1858.3662
 30
0
  0
VERTEX
  8
MATERIAL
 62
     3
 10
4873.225
 20
-1860.0174
 30
0
  0
VERTEX
  8
MATERIAL
 62
     3
 10
4959.262
 20
-1862.5951
 30
0
  0
VERTEX
  8
MATERIAL
 62
     3
 10
5042.951
 20
-1863.7773
 30
0
  0
VERTEX
  8
MATERIAL
 62
     3
 10
5142.538
 20
-1864.6223
 30
0
  0
VERTEX
  8
MATERIAL
 62
     3
 10
5223.937
 20
-1864.599
 30
0
  0
VERTEX
  8
MATERIAL
 62
     3
 10
5297.661
 20
-1864.9246
 30
0
  0
VERTEX
  8
MATERIAL
 62
     3
 10
5344.407
 20
-1865.6688
 30
0
  0
VERTEX
  8
MATERIAL
 62
     3
 10
5386.967
 20
-1866.6921
 30
0
  0
VERTEX
  8
MATERIAL
 62
     3
 10
5431.155
 20
-1868.4131
 30
0
  0
VERTEX
  8
MATERIAL
 62
     3
 10
5472.32
 20
-1870.7388
 30
0
  0
VERTEX
  8
MATERIAL
 62
     3
 10
5517.903
 20
-1873.3203
 30
0
  0
VERTEX
  8
MATERIAL
 62
     3
 10
5552.091
 20
-1875.5762
 30
0
  0
VERTEX
  8
MATERIAL
 62
     3
 10
5601.163
 20
-1878.2043
 30
0
  0
VERTEX
  8
MATERIAL
 62
     3
 10
5643.49
 20
-1880.3671
 30
0
  0
VERTEX
  8
MATERIAL
 62
     3
 10
5690.701
 20
-1880.9951
 30
0
  0
VERTEX
  8
MATERIAL
 62
     3
 10
5762.1
 20
-1882.5533
 30
0
  0
VERTEX
  8
MATERIAL
 62
     3
 10
5813.497
 20
-1883.3207
 30
0
  0
VERTEX
  8
MATERIAL
 62
     3
 10
5860.941
 20
-1884.0882
 30
0
  0
VERTEX
  8
MATERIAL
 62
     3
 10
5920.478
 20
-1884.8092
 30
0
  0
VERTEX
  8
MATERIAL
 62
     3
 10
5986.295
 20
-1886.1581
 30
0
  0
VERTEX
  8
MATERIAL
 62
     3
 10
6041.646
 20
-1887.0884
 30
0
  0
VERTEX
  8
MATERIAL
 62
     3
 10
6113.277
 20
-1888.2279
 30
0
  0
VERTEX
  8
MATERIAL
 62
     3
 10
6193.048
 20
-1889.5342
 30
0
  0
VERTEX
  8
MATERIAL
 62
     3
 10
6282.819
 20
-1891.042
 30
0
  0
VERTEX
  8
MATERIAL
 62
     3
 10
6371.428
 20
-1892.6235
 30
0
  0
VERTEX
  8
MATERIAL
 62
     3
 10
6438.408
 20
-1893.9724
 30
0
  0
VERTEX
  8
MATERIAL
 62
     3
 10
6502.131
 20
-1895.3678
 30
0
  0
VERTEX
  8
MATERIAL
 62
     3
 10
6574.692
 20
-1896.7864
 30
0
  0
VERTEX
  8
MATERIAL
 62
     3
 10
6642.37
 20
-1898.2284
 30
0
  0
VERTEX
  8
MATERIAL
 62
     3
 10
6701.907
 20
-1899.647
 30
0
  0
VERTEX
  8
MATERIAL
 62
     3
 10
6764.003
 20
-1901.1122
 30
0
  0
VERTEX
  8
MATERIAL
 62
     3
 10
6822.377
 20
-1901.7867
 30
0
  0
VERTEX
  8
MATERIAL
 62
     3
 10
6895.869
 20
-1901.9029
 30
0
  0
VERTEX
  8
MATERIAL
 62
     3
 10
6955.639
 20
-1901.4843
 30
0
  0
VERTEX
  8
MATERIAL
 62
     3
 10
7022.153
 20
-1901.9029
 30
0
  0
VERTEX
  8
MATERIAL
 62
     3
 10
7090.993
 20
-1903.5077
 30
0
  0
VERTEX
  8
MATERIAL
 62
     3
 10
7130.297
 20
-1905.9729
 30
0
  0
VERTEX
  8
MATERIAL
 62
     3
 10
7166.578
 20
-1908.973
 30
0
  0
VERTEX
  8
MATERIAL
 62
     3
 10
7204.719
 20
-1912.3918
 30
0
  0
VERTEX
  8
MATERIAL
 62
     3
 10
7256.349
 20
-1917.9734
 30
0
  0
VERTEX
  8
MATERIAL
 62
     3
 10
7302.398
 20
-1923.2527
 30
0
  0
VERTEX
  8
MATERIAL
 62
     3
 10
7346.586
 20
-1928.2762
 30
0
  0
VERTEX
  8
MATERIAL
 62
     3
 10
7390.774
 20
-1932.9973
 30
0
  0
VERTEX
  8
MATERIAL
 62
     3
 10
7440.078
 20
-1937.2533
 30
0
  0
VERTEX
  8
MATERIAL
 62
     3
 10
7491.708
 20
-1940.8116
 30
0
  0
VERTEX
  8
MATERIAL
 62
     3
 10
7552.828
 20
-1944.0068
 30
0
  0
VERTEX
  8
MATERIAL
 62
     3
 10
7614.35
 20
-1946.9102
 30
0
  0
VERTEX
  8
MATERIAL
 62
     3
 10
7847.895
 20
-1958.912
 30
0
  0
VERTEX
  8
MATERIAL
 62
     3
 10
7958.046
 20
-1962.8868
 30
0
  0
VERTEX
  8
MATERIAL
 62
     3
 10
8036.731
 20
-1964.9638
 30
0
  0
VERTEX
  8
MATERIAL
 62
     3
 10
8132.472
 20
-1967.2636
 30
0
  0
VERTEX
  8
MATERIAL
 62
     3
 10
8225.045
 20
-1970.7844
 30
0
  0
VERTEX
  8
MATERIAL
 62
     3
 10
8288.099
 20
-1974.8673
 30
0
  0
VERTEX
  8
MATERIAL
 62
     3
 10
8340.814
 20
-1979.79
 30
0
  0
VERTEX
  8
MATERIAL
 62
     3
 10
8391.978999999999
 20
-1984.0692
 30
0
  0
VERTEX
  8
MATERIAL
 62
     3
 10
8431.981
 20
-1987.2321
 30
0
  0
VERTEX
  8
MATERIAL
 62
     3
 10
8479.424999999999
 20
-1989.1857
 30
0
  0
VERTEX
  8
MATERIAL
 62
     3
 10
8528.419
 20
-1990.1974
 30
0
  0
VERTEX
  8
MATERIAL
 62
     3
 10
8671.039000000001
 20
-1993.091
 30
0
  0
VERTEX
  8
MATERIAL
 62
     3
 10
8896.743
 20
-1994.7868
 30
0
  0
VERTEX
  8
MATERIAL
 62
     3
 10
9046.674000000001
 20
-1996.803
 30
0
  0
VERTEX
  8
MATERIAL
 62
     3
 10
9429.233
 20
-1998.9303
 30
0
  0
VERTEX
  8
MATERIAL
 62
     3
 10
9503.422
 20
-1999.9071
 30
0
  0
SEQEND
  8
MATERIAL
  0
POLYLINE
  8
MATERIAL
 10
0.0
 20
0.0
 30
0
 62
     3
 40
0
 41
0
 66
     1
  0
VERTEX
  8
MATERIAL
 62
     3
 10
0
 20
-1796.6438
 30
0
  0
VERTEX
  8
MATERIAL
 62
     3
 10
116.458
 20
-1798.4281
 30
0
  0
VERTEX
  8
MATERIAL
 62
     3
 10
263.546
 20
-1800.5982
 30
0
  0
VERTEX
  8
MATERIAL
 62
     3
 10
461.269
 20
-1803.54
 30
0
  0
VERTEX
  8
MATERIAL
 62
     3
 10
610.2859999999999
 20
-1806.0477
 30
0
  0
VERTEX
  8
MATERIAL
 62
     3
 10
756.408
 20
-1807.7356
 30
0
  0
VERTEX
  8
MATERIAL
 62
     3
 10
898.191
 20
-1810.1951
 30
0
  0
VERTEX
  8
MATERIAL
 62
     3
 10
1056.852
 20
-1812.6063
 30
0
  0
VERTEX
  8
MATERIAL
 62
     3
 10
1207.315
 20
-1814.5353
 30
0
  0
VERTEX
  8
MATERIAL
 62
     3
 10
1333.183
 20
-1816.6573
 30
0
  0
VERTEX
  8
MATERIAL
 62
     3
 10
1444.101
 20
-1818.5863
 30
0
  0
VERTEX
  8
MATERIAL
 62
     3
 10
1570.451
 20
-1821.1422
 30
0
  0
VERTEX
  8
MATERIAL
 62
     3
 10
1703.473
 20
-1824.3733
 30
0
  0
VERTEX
  8
MATERIAL
 62
     3
 10
1829.662
 20
-1826.9453
 30
0
  0
VERTEX
  8
MATERIAL
 62
     3
 10
1942.59
 20
-1829.5575
 30
0
  0
VERTEX
  8
MATERIAL
 62
     3
 10
2030.601
 20
-1831.6875
 30
0
  0
VERTEX
  8
MATERIAL
 62
     3
 10
2145.136
 20
-1833.295
 30
0
  0
VERTEX
  8
MATERIAL
 62
     3
 10
2252.438
 20
-1834.7016
 30
0
  0
VERTEX
  8
MATERIAL
 62
     3
 10
2391.487
 20
-1836.2689
 30
0
  0
VERTEX
  8
MATERIAL
 62
     3
 10
2498.789
 20
-1837.7156
 30
0
  0
VERTEX
  8
MATERIAL
 62
     3
 10
2628.193
 20
-1839.1222
 30
0
  0
VERTEX
  8
MATERIAL
 62
     3
 10
2743.13
 20
-1840.8101
 30
0
  0
VERTEX
  8
MATERIAL
 62
     3
 10
2888.61
 20
-1841.4129
 30
0
  0
VERTEX
  8
MATERIAL
 62
     3
 10
3008.771
 20
-1842.2167
 30
0
  0
VERTEX
  8
MATERIAL
 62
     3
 10
3173.943
 20
-1843.3419
 30
0
  0
VERTEX
  8
MATERIAL
 62
     3
 10
3217.201
 20
-1840.2073
 30
0
  0
VERTEX
  8
MATERIAL
 62
     3
 10
3265.761
 20
-1837.0258
 30
0
  0
VERTEX
  8
MATERIAL
 62
     3
 10
3305.111
 20
-1835.0443
 30
0
  0
VERTEX
  8
MATERIAL
 62
     3
 10
3346.136
 20
-1835.0722
 30
0
  0
VERTEX
  8
MATERIAL
 62
     3
 10
3412
 20
-1836.5234
 30
0
  0
VERTEX
  8
MATERIAL
 62
     3
 10
3466.141
 20
-1837.8351
 30
0
  0
VERTEX
  8
MATERIAL
 62
     3
 10
3538.703
 20
-1839.7608
 30
0
  0
VERTEX
  8
MATERIAL
 62
     3
 10
3634.986
 20
-1843.3609
 30
0
  0
VERTEX
  8
MATERIAL
 62
     3
 10
3723.455
 20
-1846.0401
 30
0
  0
VERTEX
  8
MATERIAL
 62
     3
 10
3827.273
 20
-1849.2495
 30
0
  0
VERTEX
  8
MATERIAL
 62
     3
 10
3892.299
 20
-1851.2589
 30
0
  0
VERTEX
  8
MATERIAL
 62
     3
 10
3967.93
 20
-1853.6032
 30
0
  0
VERTEX
  8
MATERIAL
 62
     3
 10
4075.098
 20
-1856.3382
 30
0
  0
VERTEX
  8
MATERIAL
 62
     3
 10
4145.426
 20
-1858.0964
 30
0
  0
VERTEX
  8
MATERIAL
 62
     3
 10
4208.22
 20
-1859.6593
 30
0
  0
VERTEX
  8
MATERIAL
 62
     3
 10
4281.618
 20
-1859.7151
 30
0
  0
VERTEX
  8
MATERIAL
 62
     3
 10
4327.387
 20
-1860.3012
 30
0
  0
VERTEX
  8
MATERIAL
 62
     3
 10
4361.435
 20
-1862.3106
 30
0
  0
VERTEX
  8
MATERIAL
 62
     3
 10
4397.158
 20
-1864.599
 30
0
  0
VERTEX
  8
MATERIAL
 62
     3
 10
4442.648
 20
-1866.8596
 30
0
  0
VERTEX
  8
MATERIAL
 62
     3
 10
4511.023
 20
-1867.1666
 30
0
  0
VERTEX
  8
MATERIAL
 62
     3
 10
4570.188
 20
-1867.8085
 30
0
  0
VERTEX
  8
MATERIAL
 62
     3
 10
4636.61
 20
-1868.8411
 30
0
  0
VERTEX
  8
MATERIAL
 62
     3
 10
4703.31
 20
-1870.5993
 30
0
  0
VERTEX
  8
MATERIAL
 62
     3
 10
4758.569
 20
-1871.5761
 30
0
  0
VERTEX
  8
MATERIAL
 62
     3
 10
4801.547
 20
-1872.5528
 30
0
  0
VERTEX
  8
MATERIAL
 62
     3
 10
4839.223
 20
-1874.646
 30
0
  0
VERTEX
  8
MATERIAL
 62
     3
 10
4883.318
 20
-1876.4321
 30
0
  0
VERTEX
  8
MATERIAL
 62
     3
 10
4937.181
 20
-1877.4647
 30
0
  0
VERTEX
  8
MATERIAL
 62
     3
 10
4990.206
 20
-1877.66
 30
0
  0
VERTEX
  8
MATERIAL
 62
     3
 10
5046.023
 20
-1878.4136
 30
0
  0
VERTEX
  8
MATERIAL
 62
     3
 10
5109.095
 20
-1880.116
 30
0
  0
VERTEX
  8
MATERIAL
 62
     3
 10
5162.958
 20
-1881.8742
 30
0
  0
VERTEX
  8
MATERIAL
 62
     3
 10
5209.285
 20
-1883.0463
 30
0
  0
VERTEX
  8
MATERIAL
 62
     3
 10
5268.172
 20
-1884.9441
 30
0
  0
VERTEX
  8
MATERIAL
 62
     3
 10
5321.197
 20
-1886.9535
 30
0
  0
VERTEX
  8
MATERIAL
 62
     3
 10
5388.177
 20
-1888.014
 30
0
  0
VERTEX
  8
MATERIAL
 62
     3
 10
5435.342
 20
-1887.8744
 30
0
  0
VERTEX
  8
MATERIAL
 62
     3
 10
5476.646
 20
-1887.1488
 30
0
  0
VERTEX
  8
MATERIAL
 62
     3
 10
5511.252
 20
-1887.3163
 30
0
  0
VERTEX
  8
MATERIAL
 62
     3
 10
5538.602
 20
-1888.628
 30
0
  0
VERTEX
  8
MATERIAL
 62
     3
 10
5583.255
 20
-1890.7769
 30
0
  0
VERTEX
  8
MATERIAL
 62
     3
 10
5613.954
 20
-1891.4746
 30
0
  0
VERTEX
  8
MATERIAL
 62
     3
 10
5664.747
 20
-1891.7537
 30
0
  0
VERTEX
  8
MATERIAL
 62
     3
 10
5715.26
 20
-1891.7537
 30
0
  0
VERTEX
  8
MATERIAL
 62
     3
 10
5745.122
 20
-1893.3723
 30
0
  0
VERTEX
  8
MATERIAL
 62
     3
 10
5776.379
 20
-1895.8003
 30
0
  0
VERTEX
  8
MATERIAL
 62
     3
 10
5798.427
 20
-1897.2795
 30
0
  0
VERTEX
  8
MATERIAL
 62
     3
 10
5848.661
 20
-1897.5027
 30
0
  0
VERTEX
  8
MATERIAL
 62
     3
 10
5893.035
 20
-1897.9214
 30
0
  0
VERTEX
  8
MATERIAL
 62
     3
 10
5924.572
 20
-1899.568
 30
0
  0
VERTEX
  8
MATERIAL
 62
     3
 10
5946.34
 20
-1901.8285
 30
0
  0
VERTEX
  8
MATERIAL
 62
     3
 10
5982.063
 20
-1903.2518
 30
0
  0
VERTEX
  8
MATERIAL
 62
     3
 10
6038.437
 20
-1903.6705
 30
0
  0
VERTEX
  8
MATERIAL
 62
     3
 10
6101.789
 20
-1903.9774
 30
0
  0
VERTEX
  8
MATERIAL
 62
     3
 10
6150.349
 20
-1903.8937
 30
0
  0
VERTEX
  8
MATERIAL
 62
     3
 10
6200.583
 20
-1905.2054
 30
0
  0
VERTEX
  8
MATERIAL
 62
     3
 10
6246.074
 20
-1906.6008
 30
0
  0
VERTEX
  8
MATERIAL
 62
     3
 10
6295.471
 20
-1908.5265
 30
0
  0
VERTEX
  8
MATERIAL
 62
     3
 10
6352.962
 20
-1910.3684
 30
0
  0
VERTEX
  8
MATERIAL
 62
     3
 10
6403.197
 20
-1911.3731
 30
0
  0
VERTEX
  8
MATERIAL
 62
     3
 10
6458.176
 20
-1911.8196
 30
0
  0
VERTEX
  8
MATERIAL
 62
     3
 10
6495.852
 20
-1911.1498
 30
0
  0
VERTEX
  8
MATERIAL
 62
     3
 10
6537.993
 20
-1910.7312
 30
0
  0
VERTEX
  8
MATERIAL
 62
     3
 10
6573.995
 20
-1911.8755
 30
0
  0
VERTEX
  8
MATERIAL
 62
     3
 10
6608.601
 20
-1914.4709
 30
0
  0
VERTEX
  8
MATERIAL
 62
     3
 10
6630.09
 20
-1916.7594
 30
0
  0
VERTEX
  8
MATERIAL
 62
     3
 10
6652.975
 20
-1917.6245
 30
0
  0
VERTEX
  8
MATERIAL
 62
     3
 10
6710.187
 20
-1917.4292
 30
0
  0
VERTEX
  8
MATERIAL
 62
     3
 10
6770.747
 20
-1917.5408
 30
0
  0
VERTEX
  8
MATERIAL
 62
     3
 10
6820.145
 20
-1915.2802
 30
0
  0
VERTEX
  8
MATERIAL
 62
     3
 10
6860.891
 20
-1913.4383
 30
0
  0
VERTEX
  8
MATERIAL
 62
     3
 10
6893.822
 20
-1912.322
 30
0
  0
VERTEX
  8
MATERIAL
 62
     3
 10
6920.893
 20
-1911.6801
 30
0
  0
VERTEX
  8
MATERIAL
 62
     3
 10
6943.778
 20
-1912.322
 30
0
  0
VERTEX
  8
MATERIAL
 62
     3
 10
6963.035
 20
-1914.0244
 30
0
  0
VERTEX
  8
MATERIAL
 62
     3
 10
6980.896
 20
-1916.2291
 30
0
  0
VERTEX
  8
MATERIAL
 62
     3
 10
6999.873
 20
-1917.6524
 30
0
  0
VERTEX
  8
MATERIAL
 62
     3
 10
7028.061
 20
-1918.0711
 30
0
  0
VERTEX
  8
MATERIAL
 62
     3
 10
7057.643
 20
-1917.9315
 30
0
  0
VERTEX
  8
MATERIAL
 62
     3
 10
7074.946
 20
-1917.4013
 30
0
  0
VERTEX
  8
MATERIAL
 62
     3
 10
7100.901
 20
-1917.4292
 30
0
  0
VERTEX
  8
MATERIAL
 62
     3
 10
7126.855
 20
-1918.8246
 30
0
  0
VERTEX
  8
MATERIAL
 62
     3
 10
7146.112
 20
-1921.7549
 30
0
  0
VERTEX
  8
MATERIAL
 62
     3
 10
7215.603
 20
-1937.551
 30
0
  0
VERTEX
  8
MATERIAL
 62
     3
 10
7612.118
 20
-1998.4725
 30
0
  0
VERTEX
  8
MATERIAL
 62
     3
 10
7649.734
 20
-2003.4725
 30
0
  0
VERTEX
  8
MATERIAL
 62
     3
 10
7698.924
 20
-2010.0118
 30
0
  0
VERTEX
  8
MATERIAL
 62
     3
 10
7743.484
 20
-2015.0465
 30
0
  0
VERTEX
  8
MATERIAL
 62
     3
 10
7782.836
 20
-2018.2873
 30
0
  0
VERTEX
  8
MATERIAL
 62
     3
 10
7823.924
 20
-2020.197
 30
0
  0
VERTEX
  8
MATERIAL
 62
     3
 10
7878.901
 20
-2021.2965
 30
0
  0
VERTEX
  8
MATERIAL
 62
     3
 10
7963.391
 20
-2021.9331
 30
0
  0
VERTEX
  8
MATERIAL
 62
     3
 10
8066.979
 20
-2022.2225
 30
0
  0
VERTEX
  8
MATERIAL
 62
     3
 10
8167.674
 20
-2022.3961
 30
0
  0
VERTEX
  8
MATERIAL
 62
     3
 10
8274.734
 20
-2022.0488
 30
0
  0
VERTEX
  8
MATERIAL
 62
     3
 10
8323.344999999999
 20
-2023.0326
 30
0
  0
VERTEX
  8
MATERIAL
 62
     3
 10
8360.960999999999
 20
-2025.9262
 30
0
  0
VERTEX
  8
MATERIAL
 62
     3
 10
8383.530000000001
 20
-2029.8613
 30
0
  0
VERTEX
  8
MATERIAL
 62
     3
 10
8400.313
 20
-2035.359
 30
0
  0
VERTEX
  8
MATERIAL
 62
     3
 10
8415.359
 20
-2042.5928
 30
0
  0
VERTEX
  8
MATERIAL
 62
     3
 10
8428.09
 20
-2061.6322
 30
0
  0
VERTEX
  8
MATERIAL
 62
     3
 10
8463.969999999999
 20
-2069.2711
 30
0
  0
VERTEX
  8
MATERIAL
 62
     3
 10
8499.85
 20
-2077.4887
 30
0
  0
VERTEX
  8
MATERIAL
 62
     3
 10
8537.465
 20
-2080.1507
 30
0
  0
VERTEX
  8
MATERIAL
 62
     3
 10
8579.132
 20
-2083.5651
 30
0
  0
VERTEX
  8
MATERIAL
 62
     3
 10
8665.359
 20
-2083.5651
 30
0
  0
VERTEX
  8
MATERIAL
 62
     3
 10
8767.789000000001
 20
-2083.2757
 30
0
  0
VERTEX
  8
MATERIAL
 62
     3
 10
8829.710999999999
 20
-2084.2016
 30
0
  0
VERTEX
  8
MATERIAL
 62
     3
 10
8877.164000000001
 20
-2085.5905
 30
0
  0
VERTEX
  8
MATERIAL
 62
     3
 10
8928.669
 20
-2087.8475
 30
0
  0
VERTEX
  8
MATERIAL
 62
     3
 10
8997.535
 20
-2090.9725
 30
0
  0
VERTEX
  8
MATERIAL
 62
     3
 10
9045.450999999999
 20
-2093.9586
 30
0
  0
VERTEX
  8
MATERIAL
 62
     3
 10
9107.950999999999
 20
-2095.903
 30
0
  0
VERTEX
  8
MATERIAL
 62
     3
 10
9182.257
 20
-2097.5697
 30
0
  0
VERTEX
  8
MATERIAL
 62
     3
 10
9257.950999999999
 20
-2098.6808
 30
0
  0
VERTEX
  8
MATERIAL
 62
     3
 10
9335.035
 20
-2101.3891
 30
0
  0
VERTEX
  8
MATERIAL
 62
     3
 10
9396.84
 20
-2102.5697
 30
0
  0
VERTEX
  8
MATERIAL
 62
     3
 10
9466.978999999999
 20
-2106.1808
 30
0
  0
VERTEX
  8
MATERIAL
 62
     3
 10
9530.868
 20
-2108.8891
 30
0
  0
VERTEX
  8
MATERIAL
 62
     3
 10
9621.146000000001
 20
-2111.7363
 30
0
  0
VERTEX
  8
MATERIAL
 62
     3
 10
9692.674000000001
 20
-2112.9169
 30
0
  0
VERTEX
  8
MATERIAL
 62
     3
 10
9791.978999999999
 20
-2113.7502
 30
0
  0
VERTEX
  8
MATERIAL
 62
     3
 10
9887.118
 20
-2114.2363
 30
0
  0
VERTEX
  8
MATERIAL
 62
     3
 10
10000
 20
-2114.3752
 30
0
  0
SEQEND
  8
MATERIAL
  0
POLYLINE
  8
MATERIAL
 10
0.0
 20
0.0
 30
0
 62
     3
 40
0
 41
0
 66
     1
  0
VERTEX
  8
MATERIAL
 62
     3
 10
0
 20
-1856.3494
 30
0
  0
VERTEX
  8
MATERIAL
 62
     3
 10
103.933
 20
-1856.6173
 30
0
  0
VERTEX
  8
MATERIAL
 62
     3
 10
188.997
 20
-1857.0527
 30
0
  0
VERTEX
  8
MATERIAL
 62
     3
 10
267.029
 20
-1857.7894
 30
0
  0
VERTEX
  8
MATERIAL
 62
     3
 10
360.465
 20
-1858.2918
 30
0
  0
VERTEX
  8
MATERIAL
 62
     3
 10
438.496
 20
-1858.9281
 30
0
  0
VERTEX
  8
MATERIAL
 62
     3
 10
504.806
 20
-1859.7988
 30
0
  0
VERTEX
  8
MATERIAL
 62
     3
 10
571.7859999999999
 20
-1860.77
 30
0
  0
VERTEX
  8
MATERIAL
 62
     3
 10
642.114
 20
-1861.8417
 30
0
  0
VERTEX
  8
MATERIAL
 62
     3
 10
734.546
 20
-1863.3152
 30
0
  0
VERTEX
  8
MATERIAL
 62
     3
 10
817.266
 20
-1864.6548
 30
0
  0
VERTEX
  8
MATERIAL
 62
     3
 10
903.335
 20
-1865.7935
 30
0
  0
VERTEX
  8
MATERIAL
 62
     3
 10
976.677
 20
-1866.9991
 30
0
  0
VERTEX
  8
MATERIAL
 62
     3
 10
1069.109
 20
-1868.5062
 30
0
  0
VERTEX
  8
MATERIAL
 62
     3
 10
1139.773
 20
-1869.8458
 30
0
  0
VERTEX
  8
MATERIAL
 62
     3
 10
1217.804
 20
-1871.2523
 30
0
  0
VERTEX
  8
MATERIAL
 62
     3
 10
1285.118
 20
-1872.5919
 30
0
  0
VERTEX
  8
MATERIAL
 62
     3
 10
1369.848
 20
-1874.2329
 30
0
  0
VERTEX
  8
MATERIAL
 62
     3
 10
1438.502
 20
-1875.6395
 30
0
  0
VERTEX
  8
MATERIAL
 62
     3
 10
1516.868
 20
-1876.8116
 30
0
  0
VERTEX
  8
MATERIAL
 62
     3
 10
1595.234
 20
-1878.3857
 30
0
  0
VERTEX
  8
MATERIAL
 62
     3
 10
1679.963
 20
-1879.9597
 30
0
  0
VERTEX
  8
MATERIAL
 62
     3
 10
1747.278
 20
-1880.8639
 30
0
  0
VERTEX
  8
MATERIAL
 62
     3
 10
1826.648
 20
-1882.2035
 30
0
  0
VERTEX
  8
MATERIAL
 62
     3
 10
1920.42
 20
-1883.5766
 30
0
  0
VERTEX
  8
MATERIAL
 62
     3
 10
2009.838
 20
-1885.0166
 30
0
  0
VERTEX
  8
MATERIAL
 62
     3
 10
2105.284
 20
-1886.0883
 30
0
  0
VERTEX
  8
MATERIAL
 62
     3
 10
2184.654
 20
-1887.5953
 30
0
  0
VERTEX
  8
MATERIAL
 62
     3
 10
2261.011
 20
-1889.0019
 30
0
  0
VERTEX
  8
MATERIAL
 62
     3
 10
2337.703
 20
-1890.308
 30
0
  0
VERTEX
  8
MATERIAL
 62
     3
 10
2421.092
 20
-1891.5137
 30
0
  0
VERTEX
  8
MATERIAL
 62
     3
 10
2500.463
 20
-1892.7863
 30
0
  0
VERTEX
  8
MATERIAL
 62
     3
 10
2586.532
 20
-1894.0924
 30
0
  0
VERTEX
  8
MATERIAL
 62
     3
 10
2668.247
 20
-1894.9631
 30
0
  0
VERTEX
  8
MATERIAL
 62
     3
 10
2748.288
 20
-1895.8673
 30
0
  0
VERTEX
  8
MATERIAL
 62
     3
 10
2816.942
 20
-1896.5371
 30
0
  0
VERTEX
  8
MATERIAL
 62
     3
 10
2893.968
 20
-1897.073
 30
0
  0
VERTEX
  8
MATERIAL
 62
     3
 10
2976.688
 20
-1897.7762
 30
0
  0
VERTEX
  8
MATERIAL
 62
     3
 10
3036.97
 20
-1898.513
 30
0
  0
VERTEX
  8
MATERIAL
 62
     3
 10
3092.898
 20
-1898.6135
 30
0
  0
VERTEX
  8
MATERIAL
 62
     3
 10
3152.175
 20
-1899.5847
 30
0
  0
VERTEX
  8
MATERIAL
 62
     3
 10
3228.196
 20
-1901.0582
 30
0
  0
VERTEX
  8
MATERIAL
 62
     3
 10
3299.865
 20
-1902.5653
 30
0
  0
VERTEX
  8
MATERIAL
 62
     3
 10
3352.778
 20
-1904.1393
 30
0
  0
VERTEX
  8
MATERIAL
 62
     3
 10
3421.767
 20
-1905.6798
 30
0
  0
VERTEX
  8
MATERIAL
 62
     3
 10
3515.539
 20
-1907.8902
 30
0
  0
VERTEX
  8
MATERIAL
 62
     3
 10
3599.598
 20
-1909.6651
 30
0
  0
VERTEX
  8
MATERIAL
 62
     3
 10
3683.993
 20
-1911.5406
 30
0
  0
VERTEX
  8
MATERIAL
 62
     3
 10
3758.005
 20
-1913.3825
 30
0
  0
VERTEX
  8
MATERIAL
 62
     3
 10
3823.645
 20
-1914.8895
 30
0
  0
VERTEX
  8
MATERIAL
 62
     3
 10
3884.931
 20
-1916.3966
 30
0
  0
VERTEX
  8
MATERIAL
 62
     3
 10
3972.34
 20
-1918.0376
 30
0
  0
VERTEX
  8
MATERIAL
 62
     3
 10
4055.729
 20
-1919.846
 30
0
  0
VERTEX
  8
MATERIAL
 62
     3
 10
4128.402
 20
-1921.1521
 30
0
  0
VERTEX
  8
MATERIAL
 62
     3
 10
4194.377
 20
-1922.4582
 30
0
  0
VERTEX
  8
MATERIAL
 62
     3
 10
4265.375
 20
-1923.5634
 30
0
  0
VERTEX
  8
MATERIAL
 62
     3
 10
4351.109
 20
-1925.3049
 30
0
  0
VERTEX
  8
MATERIAL
 62
     3
 10
4412.731
 20
-1926.7784
 30
0
  0
VERTEX
  8
MATERIAL
 62
     3
 10
4491.767
 20
-1928.252
 30
0
  0
VERTEX
  8
MATERIAL
 62
     3
 10
4573.147
 20
-1930.3618
 30
0
  0
VERTEX
  8
MATERIAL
 62
     3
 10
4662.23
 20
-1932.5052
 30
0
  0
VERTEX
  8
MATERIAL
 62
     3
 10
4744.614
 20
-1934.1797
 30
0
  0
VERTEX
  8
MATERIAL
 62
     3
 10
4835.707
 20
-1936.6579
 30
0
  0
VERTEX
  8
MATERIAL
 62
     3
 10
4909.831
 20
-1938.4998
 30
0
  0
VERTEX
  8
MATERIAL
 62
     3
 10
5020.068
 20
-1941.3465
 30
0
  0
VERTEX
  8
MATERIAL
 62
     3
 10
5081.187
 20
-1942.9093
 30
0
  0
VERTEX
  8
MATERIAL
 62
     3
 10
5138.678
 20
-1944.528
 30
0
  0
VERTEX
  8
MATERIAL
 62
     3
 10
5234.124
 20
-1946.9839
 30
0
  0
VERTEX
  8
MATERIAL
 62
     3
 10
5295.522
 20
-1948.3235
 30
0
  0
VERTEX
  8
MATERIAL
 62
     3
 10
5362.501
 20
-1949.8306
 30
0
  0
VERTEX
  8
MATERIAL
 62
     3
 10
5442.877
 20
-1951.9795
 30
0
  0
VERTEX
  8
MATERIAL
 62
     3
 10
5536.648
 20
-1954.3238
 30
0
  0
VERTEX
  8
MATERIAL
 62
     3
 10
5605.581
 20
-1956.0262
 30
0
  0
VERTEX
  8
MATERIAL
 62
     3
 10
5675.631
 20
-1957.5611
 30
0
  0
VERTEX
  8
MATERIAL
 62
     3
 10
5772.472
 20
-1960.0729
 30
0
  0
VERTEX
  8
MATERIAL
 62
     3
 10
5873.5
 20
-1962.6404
 30
0
  0
VERTEX
  8
MATERIAL
 62
     3
 10
5959.736
 20
-1964.3986
 30
0
  0
VERTEX
  8
MATERIAL
 62
     3
 10
6059.368
 20
-1966.5475
 30
0
  0
VERTEX
  8
MATERIAL
 62
     3
 10
6170.443
 20
-1969.1709
 30
0
  0
VERTEX
  8
MATERIAL
 62
     3
 10
6254.725
 20
-1970.957
 30
0
  0
VERTEX
  8
MATERIAL
 62
     3
 10
6348.776
 20
-1973.0222
 30
0
  0
VERTEX
  8
MATERIAL
 62
     3
 10
6428.314
 20
-1974.306
 30
0
  0
VERTEX
  8
MATERIAL
 62
     3
 10
6517.62
 20
-1975.8968
 30
0
  0
VERTEX
  8
MATERIAL
 62
     3
 10
6618.369
 20
-1977.9899
 30
0
  0
VERTEX
  8
MATERIAL
 62
     3
 10
6713.536
 20
-1979.8039
 30
0
  0
VERTEX
  8
MATERIAL
 62
     3
 10
6787.492
 20
-1981.004
 30
0
  0
VERTEX
  8
MATERIAL
 62
     3
 10
6870.1
 20
-1981.2272
 30
0
  0
VERTEX
  8
MATERIAL
 62
     3
 10
6977.826
 20
-1981.8133
 30
0
  0
VERTEX
  8
MATERIAL
 62
     3
 10
7060.992
 20
-1981.8691
 30
0
  0
VERTEX
  8
MATERIAL
 62
     3
 10
7145.833
 20
-1981.9249
 30
0
  0
VERTEX
  8
MATERIAL
 62
     3
 10
7242.395
 20
-1981.7854
 30
0
  0
VERTEX
  8
MATERIAL
 62
     3
 10
7335.888
 20
-1981.3389
 30
0
  0
VERTEX
  8
MATERIAL
 62
     3
 10
7428.543
 20
-1981.1435
 30
0
  0
VERTEX
  8
MATERIAL
 62
     3
 10
7538.623
 20
-2005.3822
 30
0
  0
VERTEX
  8
MATERIAL
 62
     3
 10
7620.363
 20
-2024.8345
 30
0
  0
VERTEX
  8
MATERIAL
 62
     3
 10
7819.257
 20
-2072.1669
 30
0
  0
VERTEX
  8
MATERIAL
 62
     3
 10
7910.59
 20
-2104.4169
 30
0
  0
VERTEX
  8
MATERIAL
 62
     3
 10
7976.123
 20
-2122.8012
 30
0
  0
VERTEX
  8
MATERIAL
 62
     3
 10
7997.311
 20
-2131.8197
 30
0
  0
VERTEX
  8
MATERIAL
 62
     3
 10
8053.127
 20
-2136.6757
 30
0
  0
VERTEX
  8
MATERIAL
 62
     3
 10
8115.084
 20
-2142.4806
 30
0
  0
VERTEX
  8
MATERIAL
 62
     3
 10
8180.11
 20
-2148.3413
 30
0
  0
VERTEX
  8
MATERIAL
 62
     3
 10
8238.438
 20
-2152.3043
 30
0
  0
VERTEX
  8
MATERIAL
 62
     3
 10
8292.859
 20
-2154.7323
 30
0
  0
VERTEX
  8
MATERIAL
 62
     3
 10
8336.116
 20
-2156.658
 30
0
  0
VERTEX
  8
MATERIAL
 62
     3
 10
8376.025
 20
-2159.0581
 30
0
  0
VERTEX
  8
MATERIAL
 62
     3
 10
8412.026
 20
-2161.7373
 30
0
  0
VERTEX
  8
MATERIAL
 62
     3
 10
8442.446
 20
-2165.3932
 30
0
  0
VERTEX
  8
MATERIAL
 62
     3
 10
8462.819
 20
-2169.4399
 30
0
  0
VERTEX
  8
MATERIAL
 62
     3
 10
8476.772999999999
 20
-2171.9237
 30
0
  0
VERTEX
  8
MATERIAL
 62
     3
 10
8487.406999999999
 20
-2186.2078
 30
0
  0
VERTEX
  8
MATERIAL
 62
     3
 10
8493.288
 20
-2194.0104
 30
0
  0
VERTEX
  8
MATERIAL
 62
     3
 10
8503.09
 20
-2207.0141
 30
0
  0
VERTEX
  8
MATERIAL
 62
     3
 10
8528.09
 20
-2232.5697
 30
0
  0
VERTEX
  8
MATERIAL
 62
     3
 10
8633.646000000001
 20
-2234.3058
 30
0
  0
VERTEX
  8
MATERIAL
 62
     3
 10
8745.450999999999
 20
-2236.3197
 30
0
  0
VERTEX
  8
MATERIAL
 62
     3
 10
8877.396000000001
 20
-2238.3336
 30
0
  0
VERTEX
  8
MATERIAL
 62
     3
 10
8950.313
 20
-2240.0697
 30
0
  0
VERTEX
  8
MATERIAL
 62
     3
 10
9067.674000000001
 20
-2243.9586
 30
0
  0
VERTEX
  8
MATERIAL
 62
     3
 10
9173.924000000001
 20
-2246.9447
 30
0
  0
VERTEX
  8
MATERIAL
 62
     3
 10
9275.313
 20
-2248.8891
 30
0
  0
VERTEX
  8
MATERIAL
 62
     3
 10
9389.200999999999
 20
-2248.6808
 30
0
  0
VERTEX
  8
MATERIAL
 62
     3
 10
9476.123
 20
-2247.8012
 30
0
  0
VERTEX
  8
MATERIAL
 62
     3
 10
9535.825999999999
 20
-2246.6823
 30
0
  0
VERTEX
  8
MATERIAL
 62
     3
 10
9589.356
 20
-2244.7051
 30
0
  0
VERTEX
  8
MATERIAL
 62
     3
 10
9622.069
 20
-2242.5671
 30
0
  0
VERTEX
  8
MATERIAL
 62
     3
 10
9628.078
 20
-2239.8204
 30
0
  0
VERTEX
  8
MATERIAL
 62
     3
 10
9681.011
 20
-2231.5021
 30
0
  0
VERTEX
  8
MATERIAL
 62
     3
 10
9755.525
 20
-2222.8933
 30
0
  0
VERTEX
  8
MATERIAL
 62
     3
 10
9805.201999999999
 20
-2216.2977
 30
0
  0
VERTEX
  8
MATERIAL
 62
     3
 10
9823.9
 20
-2214.2325
 30
0
  0
VERTEX
  8
MATERIAL
 62
     3
 10
9840.087
 20
-2212.3906
 30
0
  0
VERTEX
  8
MATERIAL
 62
     3
 10
9860.739
 20
-2210.7719
 30
0
  0
VERTEX
  8
MATERIAL
 62
     3
 10
9882.228999999999
 20
-2209.6277
 30
0
  0
VERTEX
  8
MATERIAL
 62
     3
 10
9909.299000000001
 20
-2208.4276
 30
0
  0
VERTEX
  8
MATERIAL
 62
     3
 10
9944.184999999999
 20
-2207.4229
 30
0
  0
VERTEX
  8
MATERIAL
 62
     3
 10
9978.790999999999
 20
-2206.9485
 30
0
  0
VERTEX
  8
MATERIAL
 62
     3
 10
10000
 20
-2206.9485
 30
0
  0
SEQEND
  8
MATERIAL
  0
POLYLINE
  8
MATERIAL
 10
0.0
 20
0.0
 30
0
 62
     3
 40
0
 41
0
 66
     1
  0
VERTEX
  8
MATERIAL
 62
     3
 10
0
 20
-1894.0589
 30
0
  0
VERTEX
  8
MATERIAL
 62
     3
 10
93.551
 20
-1894.4608
 30
0
  0
VERTEX
  8
MATERIAL
 62
     3
 10
185.983
 20
-1895.2243
 30
0
  0
VERTEX
  8
MATERIAL
 62
     3
 10
290.07
 20
-1896.7916
 30
0
  0
VERTEX
  8
MATERIAL
 62
     3
 10
413.446
 20
-1898.5197
 30
0
  0
VERTEX
  8
MATERIAL
 62
     3
 10
544.458
 20
-1900.5291
 30
0
  0
VERTEX
  8
MATERIAL
 62
     3
 10
706.013
 20
-1903.0609
 30
0
  0
VERTEX
  8
MATERIAL
 62
     3
 10
812.51
 20
-1904.3469
 30
0
  0
VERTEX
  8
MATERIAL
 62
     3
 10
931.466
 20
-1906.276
 30
0
  0
VERTEX
  8
MATERIAL
 62
     3
 10
1046.001
 20
-1908.2452
 30
0
  0
VERTEX
  8
MATERIAL
 62
     3
 10
1168.976
 20
-1909.7723
 30
0
  0
VERTEX
  8
MATERIAL
 62
     3
 10
1296.371
 20
-1911.8621
 30
0
  0
VERTEX
  8
MATERIAL
 62
     3
 10
1418.542
 20
-1913.4696
 30
0
  0
VERTEX
  8
MATERIAL
 62
     3
 10
1538.301
 20
-1915.2378
 30
0
  0
VERTEX
  8
MATERIAL
 62
     3
 10
1656.051
 20
-1917.2472
 30
0
  0
VERTEX
  8
MATERIAL
 62
     3
 10
1781.839
 20
-1919.1762
 30
0
  0
VERTEX
  8
MATERIAL
 62
     3
 10
1908.029
 20
-1920.9847
 30
0
  0
VERTEX
  8
MATERIAL
 62
     3
 10
2016.134
 20
-1922.4314
 30
0
  0
VERTEX
  8
MATERIAL
 62
     3
 10
2139.108
 20
-1924.5614
 30
0
  0
VERTEX
  8
MATERIAL
 62
     3
 10
2249.625
 20
-1926.1689
 30
0
  0
VERTEX
  8
MATERIAL
 62
     3
 10
2301.471
 20
-1926.9436
 30
0
  0
VERTEX
  8
MATERIAL
 62
     3
 10
2354.515
 20
-1927.7362
 30
0
  0
VERTEX
  8
MATERIAL
 62
     3
 10
2471.461
 20
-1929.625
 30
0
  0
VERTEX
  8
MATERIAL
 62
     3
 10
2588.005
 20
-1930.7905
 30
0
  0
VERTEX
  8
MATERIAL
 62
     3
 10
2695.307
 20
-1932.9204
 30
0
  0
VERTEX
  8
MATERIAL
 62
     3
 10
2815.468
 20
-1934.528
 30
0
  0
VERTEX
  8
MATERIAL
 62
     3
 10
2924.779
 20
-1935.9747
 30
0
  0
VERTEX
  8
MATERIAL
 62
     3
 10
3044.94
 20
-1937.9037
 30
0
  0
VERTEX
  8
MATERIAL
 62
     3
 10
3173.139
 20
-1939.9935
 30
0
  0
VERTEX
  8
MATERIAL
 62
     3
 10
3300.534
 20
-1941.9225
 30
0
  0
VERTEX
  8
MATERIAL
 62
     3
 10
3431.145
 20
-1943.6104
 30
0
  0
VERTEX
  8
MATERIAL
 62
     3
 10
3544.876
 20
-1945.0973
 30
0
  0
VERTEX
  8
MATERIAL
 62
     3
 10
3665.037
 20
-1946.9862
 30
0
  0
VERTEX
  8
MATERIAL
 62
     3
 10
3781.582
 20
-1948.9152
 30
0
  0
VERTEX
  8
MATERIAL
 62
     3
 10
3889.687
 20
-1950.3619
 30
0
  0
VERTEX
  8
MATERIAL
 62
     3
 10
4044.41
 20
-1953.0143
 30
0
  0
VERTEX
  8
MATERIAL
 62
     3
 10
4168.59
 20
-1955.4658
 30
0
  0
VERTEX
  8
MATERIAL
 62
     3
 10
4274.686
 20
-1958.2387
 30
0
  0
VERTEX
  8
MATERIAL
 62
     3
 10
4372.744
 20
-1960.2079
 30
0
  0
VERTEX
  8
MATERIAL
 62
     3
 10
4463.568
 20
-1962.0968
 30
0
  0
VERTEX
  8
MATERIAL
 62
     3
 10
4584.935
 20
-1965.352
 30
0
  0
VERTEX
  8
MATERIAL
 62
     3
 10
4737.247
 20
-1969.1698
 30
0
  0
VERTEX
  8
MATERIAL
 62
     3
 10
4854.193
 20
-1971.5007
 30
0
  0
VERTEX
  8
MATERIAL
 62
     3
 10
4977.57
 20
-1974.3942
 30
0
  0
VERTEX
  8
MATERIAL
 62
     3
 10
5100.544
 20
-1977.0466
 30
0
  0
VERTEX
  8
MATERIAL
 62
     3
 10
5235.575
 20
-1980.1009
 30
0
  0
VERTEX
  8
MATERIAL
 62
     3
 10
5403.158
 20
-1983.9187
 30
0
  0
VERTEX
  8
MATERIAL
 62
     3
 10
5531.357
 20
-1986.9328
 30
0
  0
VERTEX
  8
MATERIAL
 62
     3
 10
5676.836
 20
-1990.1478
 30
0
  0
VERTEX
  8
MATERIAL
 62
     3
 10
5803.428
 20
-1993.2021
 30
0
  0
VERTEX
  8
MATERIAL
 62
     3
 10
5920.776
 20
-1996.0956
 30
0
  0
VERTEX
  8
MATERIAL
 62
     3
 10
6050.583
 20
-1999.2302
 30
0
  0
VERTEX
  8
MATERIAL
 62
     3
 10
6190.034
 20
-2002.6864
 30
0
  0
VERTEX
  8
MATERIAL
 62
     3
 10
6366.057
 20
-2006.7052
 30
0
  0
VERTEX
  8
MATERIAL
 62
     3
 10
6491.442
 20
-2009.6791
 30
0
  0
VERTEX
  8
MATERIAL
 62
     3
 10
6618.436
 20
-2012.5726
 30
0
  0
VERTEX
  8
MATERIAL
 62
     3
 10
6754.27
 20
-2015.4259
 30
0
  0
VERTEX
  8
MATERIAL
 62
     3
 10
6852.328
 20
-2017.7166
 30
0
  0
VERTEX
  8
MATERIAL
 62
     3
 10
6976.509
 20
-2020.2484
 30
0
  0
VERTEX
  8
MATERIAL
 62
     3
 10
7082.604
 20
-2021.7756
 30
0
  0
VERTEX
  8
MATERIAL
 62
     3
 10
7192.719
 20
-2023.1018
 30
0
  0
VERTEX
  8
MATERIAL
 62
     3
 10
7327.348
 20
-2024.1868
 30
0
  0
VERTEX
  8
MATERIAL
 62
     3
 10
7429.425
 20
-2024.5083
 30
0
  0
VERTEX
  8
MATERIAL
 62
     3
 10
7529.894
 20
-2024.9504
 30
0
  0
VERTEX
  8
MATERIAL
 62
     3
 10
7620.363
 20
-2024.8345
 30
0
  0
SEQEND
  8
MATERIAL
  0
POLYLINE
  8
MATERIAL
 10
0.0
 20
0.0
 30
0
 62
     3
 40
0
 41
0
 66
     1
  0
VERTEX
  8
MATERIAL
 62
     3
 10
8193.715
 20
-2182.9767
 30
0
  0
VERTEX
  8
MATERIAL
 62
     3
 10
8276.181
 20
-2196.4316
 30
0
  0
VERTEX
  8
MATERIAL
 62
     3
 10
8382.373
 20
-2216.3197
 30
0
  0
VERTEX
  8
MATERIAL
 62
     3
 10
8424.039000000001
 20
-2228.1831
 30
0
  0
VERTEX
  8
MATERIAL
 62
     3
 10
8462.234
 20
-2242.6507
 30
0
  0
VERTEX
  8
MATERIAL
 62
     3
 10
8485.382
 20
-2253.5882
 30
0
  0
VERTEX
  8
MATERIAL
 62
     3
 10
8501.585999999999
 20
-2267.3035
 30
0
  0
VERTEX
  8
MATERIAL
 62
     3
 10
8535.151
 20
-2290.4709
 30
0
  0
VERTEX
  8
MATERIAL
 62
     3
 10
8576.624
 20
-2294.2325
 30
0
  0
VERTEX
  8
MATERIAL
 62
     3
 10
8628.708000000001
 20
-2299.1032
 30
0
  0
VERTEX
  8
MATERIAL
 62
     3
 10
8698.152
 20
-2303.3953
 30
0
  0
VERTEX
  8
MATERIAL
 62
     3
 10
8776.277
 20
-2307.832
 30
0
  0
VERTEX
  8
MATERIAL
 62
     3
 10
8845.239
 20
-2310.6291
 30
0
  0
VERTEX
  8
MATERIAL
 62
     3
 10
8911.308000000001
 20
-2313.3297
 30
0
  0
VERTEX
  8
MATERIAL
 62
     3
 10
8983.646000000001
 20
-2315.4516
 30
0
  0
VERTEX
  8
MATERIAL
 62
     3
 10
9059.842000000001
 20
-2316.8984
 30
0
  0
VERTEX
  8
MATERIAL
 62
     3
 10
9125.428
 20
-2317.4289
 30
0
  0
VERTEX
  8
MATERIAL
 62
     3
 10
9196.802
 20
-2317.2842
 30
0
  0
VERTEX
  8
MATERIAL
 62
     3
 10
9262.870000000001
 20
-2316.0303
 30
0
  0
VERTEX
  8
MATERIAL
 62
     3
 10
9331.833000000001
 20
-2314.1013
 30
0
  0
VERTEX
  8
MATERIAL
 62
     3
 10
9380.058000000001
 20
-2311.9312
 30
0
  0
VERTEX
  8
MATERIAL
 62
     3
 10
9451.431
 20
-2309.6164
 30
0
  0
VERTEX
  8
MATERIAL
 62
     3
 10
9511.713
 20
-2307.0604
 30
0
  0
VERTEX
  8
MATERIAL
 62
     3
 10
9540.647999999999
 20
-2304.7938
 30
0
  0
VERTEX
  8
MATERIAL
 62
     3
 10
9566.208000000001
 20
-2302.5272
 30
0
  0
VERTEX
  8
MATERIAL
 62
     3
 10
9601.894
 20
-2297.8494
 30
0
  0
VERTEX
  8
MATERIAL
 62
     3
 10
9626.489
 20
-2293.0751
 30
0
  0
VERTEX
  8
MATERIAL
 62
     3
 10
9648.191000000001
 20
-2288.1561
 30
0
  0
VERTEX
  8
MATERIAL
 62
     3
 10
9668.445
 20
-2283.7194
 30
0
  0
VERTEX
  8
MATERIAL
 62
     3
 10
9692.558000000001
 20
-2278.8486
 30
0
  0
VERTEX
  8
MATERIAL
 62
     3
 10
9721.493
 20
-2274.7012
 30
0
  0
VERTEX
  8
MATERIAL
 62
     3
 10
9759.591
 20
-2270.8914
 30
0
  0
VERTEX
  8
MATERIAL
 62
     3
 10
9799.136
 20
-2268.4802
 30
0
  0
VERTEX
  8
MATERIAL
 62
     3
 10
9847.843000000001
 20
-2266.8887
 30
0
  0
VERTEX
  8
MATERIAL
 62
     3
 10
9906.196
 20
-2266.0207
 30
0
  0
VERTEX
  8
MATERIAL
 62
     3
 10
9969.370999999999
 20
-2265.7796
 30
0
  0
VERTEX
  8
MATERIAL
 62
     3
 10
10000
 20
-2265.2491
 30
0
  0
SEQEND
  8
MATERIAL
  0
POLYLINE
  8
MATERIAL
 10
0.0
 20
0.0
 30
0
 62
     3
 40
0
 41
0
 66
     1
  0
VERTEX
  8
MATERIAL
 62
     3
 10
7997.311
 20
-2131.8197
 30
0
  0
VERTEX
  8
MATERIAL
 62
     3
 10
8090.995
 20
-2153.9933
 30
0
  0
VERTEX
  8
MATERIAL
 62
     3
 10
8193.715
 20
-2182.9767
 30
0
  0
SEQEND
  8
MATERIAL
  0
ENDSEC
  0
EOF
